<?xml version="1.0" encoding="UTF-8"?>
<!DOCTYPE svg PUBLIC "-//W3C//DTD SVG 1.1//EN" "http://www.w3.org/Graphics/SVG/1.1/DTD/svg11.dtd">
<!-- Creator: CorelDRAW X7 -->
<svg xmlns="http://www.w3.org/2000/svg" xml:space="preserve" width="384.722mm" height="465.334mm" version="1.1" style="shape-rendering:geometricPrecision; text-rendering:geometricPrecision; image-rendering:optimizeQuality; fill-rule:evenodd; clip-rule:evenodd"
viewBox="0 0 5493 6644"
 xmlns:xlink="http://www.w3.org/1999/xlink">
 <defs>
  <style type="text/css">
   <![CDATA[
    .fil1 {fill:#FEFEFE;fill-rule:nonzero}
    .fil5 {fill:#F7BE82;fill-rule:nonzero}
    .fil15 {fill:#F19991;fill-rule:nonzero}
    .fil6 {fill:#F19870;fill-rule:nonzero}
    .fil12 {fill:#F0F3F2;fill-rule:nonzero}
    .fil10 {fill:#D05A47;fill-rule:nonzero}
    .fil3 {fill:#CCE8E8;fill-rule:nonzero}
    .fil8 {fill:#B6B8B5;fill-rule:nonzero}
    .fil17 {fill:#944F49;fill-rule:nonzero}
    .fil0 {fill:#ACDBDC;fill-rule:nonzero}
    .fil9 {fill:#A8A8A6;fill-rule:nonzero}
    .fil16 {fill:#82413F;fill-rule:nonzero}
    .fil14 {fill:#789097;fill-rule:nonzero}
    .fil4 {fill:#6FC6D3;fill-rule:nonzero}
    .fil13 {fill:#677578;fill-rule:nonzero}
    .fil7 {fill:#54BEC0;fill-rule:nonzero}
    .fil11 {fill:#3A616C;fill-rule:nonzero}
    .fil2 {fill:#243840;fill-rule:nonzero}
   ]]>
  </style>
 </defs>
 <g id="Layer_x0020_1">
  <metadata id="CorelCorpID_0Corel-Layer"/>
  <path class="fil0" d="M4915 5188c-88,-104 -210,-167 -295,-191 -80,-22 -200,-42 -322,-12 -77,18 -143,54 -198,106 -66,62 -116,147 -149,253 -5,16 -4,33 4,48 8,15 22,25 38,30l208 58c29,9 61,-6 73,-34 28,-63 97,-162 254,-121 119,32 144,132 149,173 8,67 -18,137 -71,186 -81,76 -187,61 -243,46 -64,-18 -131,19 -149,83l-63 224c-9,33 10,67 43,76l203 57c32,9 66,-10 76,-42l13 -47 2 -2c51,-4 151,-18 254,-75 131,-73 219,-189 264,-347 63,-225 -15,-379 -91,-469z"/>
  <path class="fil0" d="M4289 6201l-17 -5c-85,-24 -173,26 -197,110 -24,85 25,174 110,198l18 5c85,23 173,-26 197,-111 24,-85 -26,-173 -111,-197z"/>
  <path class="fil0" d="M5362 3947c-62,-33 -131,-41 -176,-37 -43,4 -104,16 -157,53 -33,23 -58,52 -75,87 -20,42 -29,92 -25,149 0,8 4,16 11,22 6,5 15,8 23,7l111 -10c15,-1 27,-14 28,-30 2,-35 17,-95 100,-104 63,-7 93,36 103,55 16,31 16,69 0,103 -25,51 -78,63 -108,66 -34,3 -59,33 -56,67l11 119c1,17 17,30 34,28l108 -9c17,-2 30,-17 28,-35l-2 -25 1 -1c23,-11 69,-36 107,-82 50,-59 71,-131 63,-215 -11,-119 -76,-179 -129,-208z"/>
  <path class="fil0" d="M5248 4547l-9 1c-45,4 -79,44 -75,89 4,45 44,78 89,74l10 -1c45,-4 78,-44 74,-89 -4,-45 -44,-78 -89,-74z"/>
  <path class="fil0" d="M940 1411c-41,-41 -95,-63 -132,-70 -35,-7 -87,-11 -138,7 -32,10 -59,28 -81,53 -25,28 -43,67 -53,113 -2,7 0,14 3,20 4,6 11,10 18,11l90 18c13,2 26,-6 30,-18 10,-28 36,-72 104,-61 52,9 66,51 70,68 6,28 -3,59 -23,82 -32,35 -78,33 -102,29 -28,-6 -55,13 -60,41l-19 98c-2,14 7,28 21,30l89 17c14,3 28,-7 31,-21l3 -21 1 0c22,-4 64,-13 106,-42 53,-36 86,-89 99,-158 18,-98 -21,-161 -57,-196z"/>
  <path class="fil0" d="M712 1866l-7 -1c-37,-7 -73,17 -80,54 -7,37 17,73 54,80l8 1c37,7 73,-17 80,-54 7,-37 -18,-73 -55,-80z"/>
  <path class="fil0" d="M5197 1442c-61,-34 -131,-42 -176,-38 -42,4 -103,16 -157,53 -33,22 -58,52 -75,87 -20,41 -29,91 -26,148 1,9 5,16 11,22 7,6 15,8 24,8l110 -10c16,-1 28,-14 29,-30 2,-35 17,-95 100,-104 63,-6 93,37 102,56 17,31 17,69 0,102 -25,51 -78,63 -108,66 -34,3 -59,33 -56,67l10 119c2,17 17,30 34,29l108 -10c17,-1 30,-17 29,-34l-3 -25 1 -1c24,-11 69,-36 108,-82 50,-59 71,-131 64,-214 -10,-120 -76,-180 -129,-209z"/>
  <path class="fil0" d="M5081 2041l-9 1c-45,4 -79,44 -75,89 4,45 44,78 89,74l9 0c45,-4 79,-44 75,-89 -4,-45 -44,-79 -89,-75z"/>
  <path class="fil0" d="M1877 5033c-77,-36 -162,-40 -216,-31 -50,7 -124,27 -185,75 -38,30 -67,68 -85,111 -21,52 -27,113 -19,181 1,11 7,20 15,26 8,6 19,9 29,7l133 -20c18,-3 32,-19 32,-38 0,-43 14,-116 113,-133 75,-13 115,37 128,59 22,36 25,82 8,123 -27,64 -90,83 -126,88 -41,7 -69,45 -63,86l22 143c3,20 23,35 44,32l129 -20c21,-3 35,-23 32,-44l-4 -30 0 -2c28,-14 81,-48 125,-106 55,-75 75,-164 60,-264 -22,-144 -106,-211 -172,-243z"/>
  <path class="fil0" d="M1783 5767l-11 1c-54,9 -91,59 -83,113 8,55 59,92 113,83l12 -1c54,-9 91,-59 83,-113 -9,-54 -59,-92 -114,-83z"/>
  <path class="fil0" d="M713 2332c-107,-51 -227,-56 -303,-44 -71,11 -173,38 -260,106 -53,42 -93,95 -118,156 -30,73 -39,159 -27,255 2,15 10,27 21,36 12,9 26,13 41,10l186 -28c26,-4 46,-28 46,-54 -1,-60 18,-164 157,-188 106,-18 162,52 181,83 31,51 35,115 11,174 -37,89 -126,116 -176,124 -57,9 -97,63 -88,120l31 200c5,30 32,50 62,45l181 -28c29,-4 49,-32 45,-61l-7 -42 2 -3c39,-21 113,-68 174,-150 77,-106 105,-231 84,-371 -32,-202 -149,-296 -243,-340z"/>
  <path class="fil0" d="M584 3362l-16 3c-76,11 -128,83 -116,159 12,76 83,128 159,116l16 -2c76,-12 128,-83 116,-159 -12,-76 -83,-129 -159,-117z"/>
  <path class="fil1" d="M3338 1062l140 23c70,83 164,146 277,176 268,71 551,-76 647,-335 111,-300 -59,-631 -370,-714 -264,-70 -544,73 -643,328 -49,126 -48,258 -7,376l0 0 -44 146z"/>
  <path class="fil2" d="M3338 1062c0,0 1,-3 3,-10 1,-6 4,-15 8,-28 7,-25 18,-61 32,-109l1 -3 2 3 0 0 -3 1c-23,-63 -42,-153 -26,-260 8,-53 25,-110 52,-165 28,-56 68,-110 120,-157 51,-47 115,-86 186,-111 72,-25 152,-38 234,-29 81,8 163,35 236,80 74,45 137,111 182,188 24,39 40,82 54,124 3,11 5,22 8,33 2,10 5,21 6,32 1,11 3,22 4,33l2 16 0 16c3,88 -15,173 -49,248 -34,76 -86,139 -144,188 -59,50 -126,85 -193,106 -67,20 -134,27 -196,23 -16,-2 -31,-4 -46,-6 -15,-2 -29,-6 -44,-9 -28,-6 -55,-15 -79,-25 -100,-41 -168,-104 -211,-155l1 1c-45,-8 -80,-14 -104,-19 -12,-2 -21,-3 -27,-5 -6,-1 -9,-1 -9,-1 0,0 3,0 10,1 6,1 15,2 27,4 24,4 59,9 104,16l0 1 1 0c43,50 110,112 210,152 24,10 51,19 79,25 14,3 28,7 43,9 15,1 30,3 45,5 62,4 128,-3 194,-24 67,-20 132,-55 190,-104 58,-49 109,-112 142,-186 33,-74 51,-158 48,-244l0 -16 -2 -16c-1,-11 -3,-22 -4,-33 -1,-11 -4,-21 -6,-32 -3,-10 -5,-21 -8,-32 -13,-41 -29,-83 -53,-122 -44,-76 -106,-141 -179,-185 -72,-45 -153,-72 -233,-80 -80,-8 -159,4 -230,29 -71,25 -134,63 -185,109 -51,46 -90,100 -118,154 -27,55 -45,111 -53,164 -16,105 2,195 24,258l4 12 -7 -10 0 0 3 -1c-15,47 -26,83 -34,108 -4,12 -7,21 -9,28 -2,6 -3,10 -3,10z"/>
  <path class="fil0" d="M4009 487c-42,-28 -91,-37 -123,-37 -30,0 -75,5 -115,28 -25,14 -45,34 -59,58 -17,28 -25,63 -26,104 0,6 2,12 6,16 4,4 10,7 16,7l80 -1c11,0 20,-8 22,-19 3,-25 18,-67 77,-69 45,-1 64,32 70,46 10,23 7,50 -6,73 -21,35 -60,40 -81,40 -24,1 -44,21 -44,45l1 85c0,13 10,23 22,23l77 -1c13,0 23,-10 23,-23l0 -18 0 -1c18,-6 52,-21 82,-51 39,-39 58,-89 58,-149 -1,-86 -44,-132 -80,-156z"/>
  <path class="fil0" d="M3892 907l-7 0c-32,0 -58,26 -58,59 0,32 27,58 59,58l7 0c32,-1 58,-27 58,-59 0,-32 -27,-59 -59,-58z"/>
  <path class="fil3" d="M4107 1764c-368,-247 -806,-335 -1092,-335 -269,0 -664,42 -1022,244 -222,125 -399,296 -527,508 -151,252 -232,563 -243,925 -1,55 19,106 57,145 38,40 89,61 144,61l704 0c100,0 185,-74 199,-172 31,-221 162,-593 689,-602 402,-7 567,284 620,409 85,204 64,446 -58,647 -188,309 -532,356 -721,357 -217,1 -394,177 -394,393l0 757c0,111 90,201 201,201l686 0c111,0 201,-90 201,-201l0 -159c0,-4 2,-7 6,-8 155,-55 456,-187 728,-456 346,-345 522,-789 522,-1322 0,-761 -381,-1177 -700,-1392z"/>
  <path class="fil4" d="M2990 5655l55 0c272,0 494,222 494,495 0,272 -222,494 -494,494l-55 0c-273,0 -495,-222 -495,-494 0,-273 222,-495 495,-495z"/>
  <path class="fil4" d="M2661 5449l686 0c111,0 201,-88 201,-195l0 -310c0,-3 2,-6 6,-8 81,-27 194,-78 322,-157 -438,-3 -1236,-7 -1415,-1l0 476c0,107 90,195 200,195z"/>
  <path class="fil5" d="M3226 2016l-440 -1278c-93,-320 -357,-533 -674,-431l-29 11c-289,112 -445,427 -356,725 82,277 176,582 233,725 119,297 431,214 431,214 0,0 69,198 99,287l161 159 67 -73 508 -339z"/>
  <path class="fil6" d="M2391 1982c0,0 192,-62 344,-265 0,0 -7,260 -315,348l-29 -83z"/>
  <path class="fil2" d="M1942 1245c8,23 34,35 58,27 24,-8 37,-33 29,-55 -8,-23 -34,-35 -58,-27 -24,7 -37,32 -29,55z"/>
  <path class="fil2" d="M1836 1136c7,3 31,-33 76,-51 46,-18 89,-7 92,-15 1,-3 -8,-11 -27,-16 -19,-5 -47,-6 -76,5 -28,11 -48,31 -58,47 -10,17 -10,28 -7,30z"/>
  <path class="fil2" d="M2325 1093c8,3 31,-33 77,-50 45,-19 88,-8 91,-16 1,-3 -8,-11 -27,-16 -18,-5 -47,-6 -75,5 -29,11 -49,31 -59,47 -9,17 -10,29 -7,30z"/>
  <path class="fil2" d="M2261 1389c-1,-3 -31,3 -80,15 -12,3 -24,5 -29,-2 -6,-7 -6,-22 -5,-38 0,-32 0,-66 0,-102 -1,-146 -7,-263 -12,-263 -6,0 -10,118 -9,263 0,36 1,70 1,103 1,15 -1,33 12,48 6,7 17,10 26,10 8,-1 15,-3 21,-5 47,-16 76,-27 75,-29z"/>
  <path class="fil2" d="M2219 835c11,10 51,-20 104,-42 54,-23 102,-31 103,-45 0,-7 -13,-14 -35,-16 -23,-2 -55,2 -87,15 -32,14 -57,34 -71,52 -15,17 -19,32 -14,36z"/>
  <path class="fil2" d="M1782 1002c13,7 47,-18 92,-35 44,-19 86,-24 90,-38 2,-7 -8,-15 -28,-19 -20,-4 -50,-1 -81,11 -31,12 -54,32 -66,48 -12,17 -13,29 -7,33z"/>
  <path class="fil2" d="M2417 1368c-7,2 8,49 -21,97 -29,47 -82,59 -80,66 0,3 14,5 36,-1 21,-7 50,-24 68,-53 18,-29 19,-60 14,-80 -5,-21 -14,-31 -17,-29z"/>
  <path class="fil2" d="M1971 2944c-3,0 33,177 67,361l11 0c-34,-184 -75,-362 -78,-361z"/>
  <path class="fil7" d="M2120 3314c100,0 192,-72 206,-170 32,-221 158,-594 688,-603 404,-7 574,279 622,406 75,202 66,447 -57,648 -188,308 -535,356 -725,356 -219,1 -397,177 -397,393l0 824 1095 -21 0 -206c0,-4 2,-7 6,-8 133,-47 345,-135 583,-326l-72 -949c0,0 209,-401 198,-491 -94,-823 -374,-1288 -488,-1332 -127,-48 -620,-25 -620,-25 0,0 -213,395 -512,439 -166,24 -227,-184 -227,-184l-386 227c-275,138 -328,678 -334,1022l420 0z"/>
  <path class="fil8" d="M3230 3883c0,0 0,0 0,-1 0,0 25,-10 54,-23 0,0 0,0 0,0 -18,9 -36,17 -54,24zm62 -28c0,0 0,0 0,0 10,-5 20,-10 29,-15 1,0 2,-1 2,-1 -10,6 -20,11 -31,16z"/>
  <path class="fil9" d="M3284 3859c0,0 0,0 0,0 1,-1 2,-1 3,-2 0,0 1,0 1,1 -2,0 -3,1 -4,1z"/>
  <path class="fil9" d="M3288 3858c0,-1 -1,-1 -1,-1 2,-1 3,-1 5,-2 0,0 0,0 0,0 -1,1 -3,2 -4,3z"/>
  <path class="fil10" d="M4100 4066l-4 -58c11,16 9,38 4,58zm-870 -183c0,0 0,0 0,0 18,-7 36,-15 54,-24 1,0 2,-1 4,-1 1,-1 3,-2 4,-3 11,-5 21,-10 31,-16 36,-19 66,-40 66,-40 0,0 0,0 0,0 -51,35 -105,63 -159,84z"/>
  <path class="fil4" d="M3780 4352c-65,0 -128,-31 -183,-66 -154,-98 -284,-241 -367,-403 54,-21 108,-49 159,-84 220,56 438,127 659,183 16,4 33,9 44,22 2,1 3,2 4,4l4 58c-1,3 -1,6 -2,9 -23,76 -74,141 -133,194 -48,42 -106,77 -169,82 -6,1 -11,1 -16,1z"/>
  <path class="fil4" d="M3631 2953c89,203 66,445 -60,646 -69,111 -158,191 -255,244 104,113 210,213 315,288 113,80 372,57 471,-118 121,-216 132,-768 132,-768 23,-333 23,-333 23,-333l-680 -104 -5 19c29,44 46,95 59,126z"/>
  <path class="fil11" d="M2448 2813l-39 61c-29,20 -57,9 -75,-29l-418 -636 102 -65 461 611c0,0 7,32 -31,58z"/>
  <path class="fil2" d="M1925 1415c-118,-67 -265,-77 -397,-16 -105,49 -185,135 -225,244 -40,109 -35,227 14,333 49,105 136,185 245,225 109,40 227,35 332,-14 105,-49 185,-136 225,-245 40,-109 35,-227 -14,-332 -39,-86 -104,-152 -180,-195zm-443 783c-82,-46 -151,-118 -193,-209 -53,-113 -58,-239 -15,-356 43,-117 128,-210 241,-263 233,-108 510,-6 618,227 53,113 58,239 15,356 -42,117 -128,210 -241,262 -141,66 -299,54 -425,-17z"/>
  <path class="fil11" d="M1945 1395c-118,-66 -265,-77 -397,-16 -105,49 -185,136 -225,245 -40,109 -35,227 14,332 49,105 136,185 245,225 109,40 227,35 332,-14 105,-48 185,-135 225,-244 40,-109 35,-227 -14,-333 -40,-85 -104,-152 -180,-195zm-443 783c-82,-46 -151,-117 -193,-209 -53,-113 -58,-239 -15,-356 42,-117 128,-210 241,-262 233,-108 510,-7 618,226 53,113 58,240 15,356 -43,117 -128,210 -241,263 -141,65 -299,54 -425,-18z"/>
  <path class="fil1" d="M2118 1780c0,0 0,-3 0,-8 -1,-5 0,-12 -1,-22 -1,-19 -5,-46 -16,-78 -5,-16 -12,-34 -20,-52 -9,-17 -19,-36 -32,-55 -12,-18 -27,-37 -44,-55 -16,-17 -35,-35 -55,-50 -21,-15 -43,-28 -65,-39 -22,-10 -44,-17 -66,-23 -43,-11 -84,-14 -118,-12 -34,2 -61,7 -79,12 -9,2 -16,5 -21,6 -5,2 -7,2 -7,2 0,0 2,-1 7,-3 4,-1 11,-4 20,-7 19,-5 46,-11 80,-14 34,-2 75,0 119,11 22,6 45,14 67,24 22,10 45,23 66,39 21,16 39,33 56,51 17,18 31,37 44,56 13,18 23,38 32,55 8,19 15,36 20,53 10,32 13,60 14,79 1,10 0,17 0,22 0,5 -1,8 -1,8z"/>
  <path class="fil1" d="M1632 2159c1,-1 22,7 58,11 4,1 9,2 14,2 5,1 10,1 15,1 11,1 22,0 34,0 24,-1 50,-5 77,-12 26,-7 51,-17 72,-28 10,-6 20,-11 29,-17 5,-3 9,-6 13,-9 4,-2 8,-5 11,-8 29,-22 43,-40 44,-39 0,0 -3,5 -10,12 -3,4 -8,9 -13,13 -5,5 -11,11 -18,17 -4,3 -8,6 -12,9 -4,3 -8,5 -13,8 -8,7 -18,12 -29,18 -21,11 -46,21 -73,29 -27,7 -54,11 -78,12 -12,0 -23,0 -34,-1 -5,0 -11,0 -16,-1 -4,-1 -9,-1 -14,-2 -9,-1 -17,-3 -24,-5 -7,-1 -13,-3 -18,-5 -9,-3 -15,-5 -15,-5z"/>
  <path class="fil1" d="M1953 1861c-1,1 -62,-60 -136,-136 -74,-76 -133,-138 -132,-139 1,-1 62,60 136,135 74,76 133,139 132,140z"/>
  <path class="fil1" d="M1881 1983c0,0 -2,-2 -4,-5 -3,-3 -7,-7 -12,-13 -11,-12 -26,-28 -44,-48 -36,-41 -87,-97 -144,-159 -56,-61 -108,-116 -146,-156 -19,-20 -34,-36 -45,-47 -5,-5 -9,-10 -12,-13 -2,-3 -4,-5 -4,-5 0,0 2,1 5,4 3,3 7,7 13,12 11,11 26,27 45,47 39,39 91,93 148,155 57,62 107,118 143,160 18,20 32,37 42,49 5,6 8,10 11,14 3,3 4,4 4,5z"/>
  <path class="fil1" d="M1736 1856l-335 -365c0,0 0,0 0,0 0,-1 1,-2 1,-2 4,-4 11,-12 22,-23 21,-18 43,-34 67,-48 92,126 190,258 293,397 -10,8 -19,15 -28,23 -23,-26 -48,-54 -75,-83 -57,-62 -109,-116 -148,-155 -19,-20 -34,-36 -45,-47 -6,-5 -10,-9 -13,-12 -3,-3 -4,-4 -5,-4 0,0 0,0 0,0 0,0 2,2 4,5 3,3 7,8 12,13 11,11 26,27 45,47 38,40 90,95 146,156 27,29 53,57 76,83 -6,5 -12,10 -17,15zm62 -53c-82,-113 -162,-223 -239,-328l276 300c-12,9 -25,19 -37,28z"/>
  <path class="fil12" d="M1784 1815c-103,-139 -201,-271 -293,-397 3,-2 7,-4 10,-6 0,0 0,0 0,0l58 63c77,105 157,215 239,328 -5,4 -10,8 -14,12z"/>
  <path class="fil7" d="M1984 2126l-24 -26c6,-5 11,-10 16,-15 5,-4 10,-9 13,-13 7,-7 10,-12 10,-12 0,0 0,0 0,0 -1,0 -15,16 -41,37l-222 -241c5,-5 11,-10 17,-15 26,29 49,54 68,76 18,20 33,36 44,48 5,6 9,10 12,13 2,3 4,5 4,5 0,0 0,0 0,0 0,-1 -1,-2 -4,-5 -3,-4 -6,-8 -11,-14 -10,-12 -24,-29 -42,-49 -19,-22 -42,-48 -68,-77 9,-8 18,-15 28,-23 4,-4 9,-8 14,-12 12,-9 25,-19 37,-28l238 258c0,0 -37,52 -75,83 -4,4 -9,7 -13,10 0,0 0,0 -1,0z"/>
  <path class="fil13" d="M1424 1466c18,-17 45,-39 77,-54 -3,2 -7,4 -10,6 -24,14 -46,30 -67,48z"/>
  <path class="fil14" d="M1985 2126c4,-3 9,-6 13,-10 -4,4 -9,7 -13,10zm-584 -635c0,-1 0,-1 1,-2 0,0 -1,1 -1,2z"/>
  <path class="fil1" d="M1960 2100l-2 -3c26,-21 40,-37 41,-37 0,0 0,0 0,0 0,0 -3,5 -10,12 -3,4 -8,9 -13,13 -5,5 -10,10 -16,15z"/>
  <path class="fil1" d="M1881 1983c0,0 -2,-2 -4,-5 -3,-3 -7,-7 -12,-13 -11,-12 -26,-28 -44,-48 -19,-22 -42,-47 -68,-76 -23,-26 -49,-54 -76,-83 -56,-61 -108,-116 -146,-156 -19,-20 -34,-36 -45,-47 -5,-5 -9,-10 -12,-13 -2,-3 -4,-5 -4,-5 0,0 0,0 0,0 1,0 2,1 5,4 3,3 7,7 13,12 11,11 26,27 45,47 39,39 91,93 148,155 27,29 52,57 75,83 26,29 49,55 68,77 18,20 32,37 42,49 5,6 8,10 11,14 3,3 4,4 4,5 0,0 0,0 0,0z"/>
  <path class="fil15" d="M1880 2180l-21 -23c11,-4 22,-9 32,-14l23 24c-8,4 -15,7 -23,10 -3,1 -7,2 -11,3z"/>
  <path class="fil1" d="M1653 1935l-317 -342c0,0 0,0 0,0 4,-10 9,-19 14,-29 0,0 1,-1 2,-2l324 350c-7,8 -15,16 -23,23z"/>
  <path class="fil7" d="M1855 2153l-202 -218c8,-7 16,-15 23,-23l212 228c-10,4 -21,9 -33,13z"/>
  <path class="fil14" d="M1891 2177c8,-3 15,-6 23,-10l0 0c0,0 4,3 -23,10zm-555 -584c0,-1 3,-14 14,-29 -5,10 -10,19 -14,29z"/>
  <path class="fil1" d="M1859 2157l-4 -4c12,-4 23,-9 33,-13l3 3c-10,5 -21,10 -32,14z"/>
  <path class="fil5" d="M2832 2561c-120,-97 -415,-333 -428,-339 -17,-8 -276,-100 -326,-70 -49,29 -182,196 -182,196 0,0 12,104 128,30 89,-57 102,-66 104,-67l0 0 123 29c0,0 -150,63 -182,96 -32,33 -82,160 -51,189 32,29 68,31 68,31 0,0 -62,89 48,142 0,0 16,74 71,103 54,29 155,19 155,19 0,0 47,-28 12,-74 -35,-46 -99,-52 -99,-52l80 -47c0,0 41,13 103,60 0,0 72,-93 145,-146 82,-59 231,-100 231,-100z"/>
  <path class="fil6" d="M2321 2600c0,-1 -4,-1 -12,0 -7,1 -18,4 -31,8 -26,8 -61,26 -90,57 -28,31 -43,67 -49,94 -3,13 -5,24 -5,32 0,8 0,12 0,12 2,0 2,-17 9,-43 7,-26 22,-61 50,-91 27,-30 61,-48 86,-57 25,-9 42,-11 42,-12z"/>
  <path class="fil6" d="M2326 2466c0,-1 -4,-1 -12,0 -4,1 -9,2 -15,3 -6,1 -12,2 -19,4 -14,4 -31,10 -48,19 -18,8 -36,19 -54,33 -17,13 -33,28 -45,43 -13,15 -23,29 -30,42 -4,6 -7,12 -10,17 -2,5 -4,10 -6,14 -3,7 -4,12 -4,12 1,0 8,-17 23,-41 8,-12 18,-26 31,-40 12,-15 27,-29 45,-43 17,-13 37,-28 54,-37 17,-8 31,-10 45,-15 28,-8 46,-10 45,-11z"/>
  <path class="fil6" d="M2349 2311c0,0 -6,-3 -17,-3 -10,-1 -26,1 -41,7 -20,9 -27,17 -33,24 -7,8 -10,15 -9,15 1,1 15,-22 45,-34 29,-12 55,-7 55,-9z"/>
  <path class="fil4" d="M3732 1823c0,0 380,36 500,367 96,262 25,1043 1,1059l-548 -17c-9,-192 -60,-340 -133,-435l180 -974z"/>
  <path class="fil7" d="M3695 3232c1,-1 5,2 13,7 9,5 20,13 34,23 28,21 65,51 102,89 38,37 68,74 89,102 11,14 19,25 24,33 6,8 8,13 8,13 -1,1 -14,-16 -36,-43 -22,-26 -53,-62 -90,-99 -38,-38 -74,-69 -100,-90 -27,-22 -44,-34 -44,-35z"/>
  <path class="fil7" d="M3615 2424c3,0 -10,84 -27,187 -18,103 -33,186 -36,186 -2,0 10,-84 28,-187 17,-103 33,-187 35,-186z"/>
  <path class="fil2" d="M2771 4779c0,0 4,-1 11,-2 8,-1 19,-2 32,-3 29,-3 69,-7 118,-11 100,-10 237,-24 389,-43 151,-20 288,-40 387,-55 49,-8 88,-14 117,-19 13,-2 24,-4 32,-5 7,-1 11,-1 11,-1 0,0 -4,1 -11,3 -8,1 -18,3 -31,6 -28,6 -68,13 -117,21 -99,17 -236,39 -387,58 -152,19 -290,32 -390,40 -49,5 -90,7 -118,9 -13,1 -24,1 -32,2 -7,0 -11,0 -11,0z"/>
  <path class="fil2" d="M2711 4679c0,-1 10,-2 28,-3 19,-1 45,-2 76,-4 65,-3 152,-8 249,-13 96,-5 184,-10 249,-14 30,-2 56,-3 75,-4 18,-1 28,-2 28,-1 0,1 -10,2 -28,4 -17,2 -43,4 -75,7 -64,5 -152,11 -249,16 -97,6 -185,9 -249,11 -32,1 -58,1 -76,1 -18,0 -28,0 -28,0z"/>
  <path class="fil5" d="M1642 3257c3,-9 7,-18 13,-26 11,-16 28,-29 47,-33 32,-7 68,8 85,36 -1,-22 16,-41 36,-47 21,-6 37,2 53,16 17,13 21,24 27,45 17,-37 101,-33 111,-5 0,0 72,-79 109,-40 16,16 9,41 -1,65 -14,34 -23,47 -40,84l-69 4c-6,21 -18,108 -20,130 -3,22 -7,45 -19,64 -12,19 -32,33 -54,33 -22,0 -44,-19 -43,-42 -5,19 -12,37 -26,50 -13,13 -33,21 -52,16 -18,-5 -32,-24 -29,-42 -24,17 -60,2 -76,-24 -15,-25 -16,-57 -15,-86 1,-27 4,-56 -7,-81 -1,-4 -4,-7 -5,-11 -2,-7 -1,-14 -1,-20 -1,-14 -4,-28 -8,-41 -1,-2 -3,-5 -4,-8 -3,-7 -8,-14 -12,-21 -1,-1 -1,-3 -2,-5 0,-3 2,-7 2,-11z"/>
  <path class="fil5" d="M1565 3219c-18,0 -38,4 -50,17 -14,16 -18,55 -16,77 25,5 39,-1 64,4 5,1 10,-1 14,3 12,8 10,36 15,49 8,24 38,35 62,27 23,-9 38,-34 39,-59 1,-24 -10,-49 -26,-68 -25,-30 -63,-48 -102,-50z"/>
  <path class="fil6" d="M1998 3450c-3,-1 7,-47 14,-105 3,-29 4,-55 3,-74 -1,-19 -3,-30 -2,-31 1,0 5,11 7,31 3,19 3,46 0,75 -3,29 -9,56 -13,74 -5,19 -8,30 -9,30z"/>
  <path class="fil6" d="M1874 3550c-1,0 2,-17 7,-45 5,-27 12,-64 17,-106 5,-41 7,-79 7,-107 -1,-27 -3,-44 -2,-44 1,-1 5,16 7,44 2,28 1,66 -4,108 -5,42 -13,80 -20,107 -6,27 -11,43 -12,43z"/>
  <path class="fil6" d="M1769 3568c-1,-1 4,-19 9,-50 5,-30 12,-72 14,-119 3,-47 1,-89 -1,-120 -2,-31 -4,-50 -3,-50 0,0 2,5 3,13 2,9 4,21 6,36 3,31 6,74 3,121 -2,48 -9,90 -16,120 -4,16 -7,28 -10,36 -2,8 -4,13 -5,13z"/>
  <path class="fil6" d="M1632 3262c0,0 9,2 21,11 12,9 26,25 35,46 8,22 9,44 4,58 -4,15 -14,20 -14,20 -1,-1 6,-8 9,-21 2,-14 1,-34 -7,-54 -8,-20 -20,-35 -31,-44 -10,-10 -18,-14 -17,-16z"/>
  <path class="fil16" d="M1723 855c6,-10 13,-19 20,-27 34,-36 42,-59 84,-84 89,-51 169,-151 235,-230 19,-22 38,-47 43,-77 106,95 234,166 370,206 25,8 51,14 72,30 44,33 19,83 31,129 12,46 25,91 38,137 16,61 33,121 50,182l40 -21c0,0 -20,-295 20,-280 39,15 203,102 59,347 -4,13 170,80 179,88 -12,-75 -36,-211 -29,-259 12,-90 8,-181 -6,-270 -30,-178 -102,-348 -200,-497 -47,-73 -102,-144 -173,-194 -11,-8 -23,-15 -36,-18 -13,-3 -26,-1 -39,2 -36,7 -71,16 -105,28 -33,-34 -82,-48 -129,-47 -47,1 -93,16 -137,32 -31,12 -62,25 -92,40 -177,83 -334,205 -404,396 -29,77 -25,195 -10,275 7,41 17,80 36,117 20,37 56,66 75,102 -18,-33 -11,-74 8,-107z"/>
  <path class="fil17" d="M2082 132c0,0 -462,38 -444,521 0,0 326,81 478,-418l-230 160 196 -263z"/>
 </g>
</svg>
