<?xml version="1.0" encoding="UTF-8"?>
<!DOCTYPE svg PUBLIC "-//W3C//DTD SVG 1.1//EN" "http://www.w3.org/Graphics/SVG/1.1/DTD/svg11.dtd">
<!-- Creator: CorelDRAW X7 -->
<svg xmlns="http://www.w3.org/2000/svg" xml:space="preserve" width="501.496mm" height="496.354mm" version="1.1" style="shape-rendering:geometricPrecision; text-rendering:geometricPrecision; image-rendering:optimizeQuality; fill-rule:evenodd; clip-rule:evenodd"
viewBox="0 0 50172 49657"
 xmlns:xlink="http://www.w3.org/1999/xlink">
 <defs>
  <style type="text/css">
   <![CDATA[
    .fil17 {fill:#FEFEFE;fill-rule:nonzero}
    .fil70 {fill:#F7BE82;fill-rule:nonzero}
    .fil52 {fill:#FDFCFC;fill-rule:nonzero}
    .fil76 {fill:#EF8B5A;fill-rule:nonzero}
    .fil9 {fill:#FBFCFB;fill-rule:nonzero}
    .fil15 {fill:#F7F7F5;fill-rule:nonzero}
    .fil0 {fill:#F4F6F5;fill-rule:nonzero}
    .fil21 {fill:#F4F4F4;fill-rule:nonzero}
    .fil18 {fill:#F3F9F9;fill-rule:nonzero}
    .fil40 {fill:#F0F1EF;fill-rule:nonzero}
    .fil69 {fill:#E58D70;fill-rule:nonzero}
    .fil51 {fill:#ECEDEC;fill-rule:nonzero}
    .fil44 {fill:#E8E8E7;fill-rule:nonzero}
    .fil72 {fill:#DB6D69;fill-rule:nonzero}
    .fil58 {fill:#E5F4FB;fill-rule:nonzero}
    .fil11 {fill:#E4E8E9;fill-rule:nonzero}
    .fil75 {fill:#D87244;fill-rule:nonzero}
    .fil2 {fill:#E1E1E0;fill-rule:nonzero}
    .fil5 {fill:#DDDEDC;fill-rule:nonzero}
    .fil19 {fill:#DBEFEE;fill-rule:nonzero}
    .fil13 {fill:#DBDCDB;fill-rule:nonzero}
    .fil20 {fill:#D9EDEC;fill-rule:nonzero}
    .fil10 {fill:#D7EDEC;fill-rule:nonzero}
    .fil74 {fill:#C5673F;fill-rule:nonzero}
    .fil55 {fill:#CCCDCB;fill-rule:nonzero}
    .fil47 {fill:#C1C2C0;fill-rule:nonzero}
    .fil77 {fill:#9D402E;fill-rule:nonzero}
    .fil38 {fill:#B6B8B5;fill-rule:nonzero}
    .fil49 {fill:#B3B4B2;fill-rule:nonzero}
    .fil23 {fill:#AEAFAD;fill-rule:nonzero}
    .fil73 {fill:#944F49;fill-rule:nonzero}
    .fil16 {fill:#ACDBDC;fill-rule:nonzero}
    .fil68 {fill:#ACDBDC;fill-rule:nonzero}
    .fil71 {fill:#82413F;fill-rule:nonzero}
    .fil24 {fill:#9EA09E;fill-rule:nonzero}
    .fil46 {fill:#9CAEB2;fill-rule:nonzero}
    .fil45 {fill:#94A5A8;fill-rule:nonzero}
    .fil53 {fill:#898B8A;fill-rule:nonzero}
    .fil12 {fill:#83CBC9;fill-rule:nonzero}
    .fil14 {fill:#7DC9C5;fill-rule:nonzero}
    .fil29 {fill:#747575;fill-rule:nonzero}
    .fil60 {fill:#76C9DF;fill-rule:nonzero}
    .fil1 {fill:#6FC6D3;fill-rule:nonzero}
    .fil54 {fill:#6FC6D3;fill-rule:nonzero}
    .fil80 {fill:#79868F;fill-rule:nonzero}
    .fil33 {fill:#505151;fill-rule:nonzero}
    .fil34 {fill:#4D4E4F;fill-rule:nonzero}
    .fil41 {fill:#54BEC0;fill-rule:nonzero}
    .fil59 {fill:#54BEC0;fill-rule:nonzero}
    .fil35 {fill:#47494A;fill-rule:nonzero}
    .fil57 {fill:#4EBCB6;fill-rule:nonzero}
    .fil81 {fill:#383D43;fill-rule:nonzero}
    .fil4 {fill:#3A616C;fill-rule:nonzero}
    .fil63 {fill:#3A616C;fill-rule:nonzero}
    .fil7 {fill:#355761;fill-rule:nonzero}
    .fil62 {fill:#363E4A;fill-rule:nonzero}
    .fil3 {fill:#2F4C55;fill-rule:nonzero}
    .fil65 {fill:#2E343D;fill-rule:nonzero}
    .fil6 {fill:#2A454D;fill-rule:nonzero}
    .fil8 {fill:#00AAA3;fill-rule:nonzero}
    .fil61 {fill:#00AAA3;fill-rule:nonzero}
    .fil83 {fill:#2C5C63;fill-rule:nonzero}
    .fil64 {fill:#098582;fill-rule:nonzero}
    .fil66 {fill:#098582;fill-rule:nonzero}
    .fil79 {fill:#295059;fill-rule:nonzero}
    .fil82 {fill:#29494F;fill-rule:nonzero}
    .fil78 {fill:#28484F;fill-rule:nonzero}
    .fil32 {fill:#243840;fill-rule:nonzero}
    .fil43 {fill:#00A79E;fill-rule:nonzero}
    .fil42 {fill:#21343A;fill-rule:nonzero}
    .fil48 {fill:#00A698;fill-rule:nonzero}
    .fil56 {fill:#00A495;fill-rule:nonzero}
    .fil28 {fill:#192827;fill-rule:nonzero}
    .fil26 {fill:#00A08A;fill-rule:nonzero}
    .fil37 {fill:#172A29;fill-rule:nonzero}
    .fil50 {fill:#008E7A;fill-rule:nonzero}
    .fil31 {fill:#007A68;fill-rule:nonzero}
    .fil22 {fill:#006353;fill-rule:nonzero}
    .fil30 {fill:#005649;fill-rule:nonzero}
    .fil36 {fill:#004B41;fill-rule:nonzero}
    .fil25 {fill:#00463C;fill-rule:nonzero}
    .fil39 {fill:#0C3631;fill-rule:nonzero}
    .fil27 {fill:#0E3430;fill-rule:nonzero}
    .fil67 {fill:#00524F;fill-rule:nonzero}
   ]]>
  </style>
 </defs>
 <g id="Layer_x0020_1">
  <metadata id="CorelCorpID_0Corel-Layer"/>
  <path class="fil0" d="M7348 45855c-4899,-2535 -7348,-5857 -7348,-9180 0,-3322 2449,-6645 7347,-9180 9797,-5069 25681,-5069 35477,0 9797,5070 9797,13290 0,18360 -4897,2534 -11315,3802 -17733,3802l-10 0c-6418,0 -12836,-1268 -17733,-3802z"/>
  <path class="fil1" d="M10004 3273l-958 553c5,-43 8,-85 8,-127l0 -277c0,-494 -347,-694 -774,-447 -174,100 -333,258 -462,444 -70,-622 -557,-853 -1149,-511 -640,369 -1159,1268 -1159,2007l0 415c0,191 36,352 98,481l-795 459c-238,137 -430,471 -430,744 0,274 192,385 430,248l5191 -2997c237,-137 430,-470 430,-744 0,-274 -193,-385 -430,-248z"/>
  <path class="fil1" d="M14614 5349l-723 417c4,-32 6,-64 6,-96l0 -209c0,-373 -261,-524 -584,-338 -131,76 -251,195 -349,335 -52,-468 -420,-643 -867,-385 -483,279 -874,957 -874,1515l0 313c0,144 26,266 74,363l-601 347c-179,103 -324,355 -324,561 0,207 145,291 324,187l3918 -2262c179,-103 324,-355 324,-561 0,-207 -145,-291 -324,-187z"/>
  <path class="fil2" d="M7229 43593l-4567 -2636c-257,-149 -257,-390 0,-538l25551 -14734c257,-149 675,-149 932,0l4567 2636c257,149 257,390 0,539l-25551 14733c-257,149 -675,149 -932,0z"/>
  <path class="fil2" d="M31750 34199l-568 -329c-1289,-744 -3325,-780 -4537,-80l-2120 1224c-75,43 -101,139 -58,214 44,75 139,100 214,57l2120 -1224c1126,-650 3021,-614 4224,81l568 328c554,319 858,734 858,1169 0,435 -304,850 -858,1169l-7776 4490c-1203,695 -3161,695 -4364,0l-2264 -1307c-1290,-745 -3388,-745 -4677,0l-568 328c-682,393 -1057,917 -1057,1474 0,514 326,984 917,1326l2028 1171 -833 491c-381,225 -380,589 3,810l1523 880c63,36 62,94 0,130l-127 72c-62,36 -62,94 0,130l198 114c62,36 164,36 226,1l691 -398c62,-35 164,-35 226,1l1258 726c62,36 164,36 226,0l198 -114c62,-36 62,-95 0,-131l-1258 -726c-62,-36 -62,-95 0,-131l483 -278c62,-36 163,-36 226,0l1258 726c62,36 163,36 226,0l198 -114c62,-36 62,-95 0,-131l-1258 -726c-63,-36 -63,-95 0,-131l622 -359c62,-36 62,-94 0,-130l-198 -115c-63,-35 -164,-35 -226,0l-198 115c-63,36 -164,36 -226,0l-1935 -1117c-171,-99 -451,-98 -621,3l-385 227c-13,-17 -29,-32 -48,-43l-2121 -1224c-490,-283 -760,-658 -760,-1055 0,-434 328,-873 900,-1203l569 -328c1203,-695 3160,-695 4363,0l2264 1307c1290,745 3388,745 4677,0l7777 -4490c654,-377 1014,-889 1014,-1440 0,-551 -360,-1063 -1014,-1440z"/>
  <path class="fil3" d="M24681 34798c0,0 60,-34 167,-96 322,-186 1075,-621 1953,-1128 529,-306 1247,-464 1984,-463 801,-1 1621,186 2240,544l0 0 568 328c297,171 513,365 653,565 140,200 205,403 205,604 0,201 -65,405 -205,605 -140,199 -356,393 -653,564l-7776 4490c-592,343 -1387,520 -2182,520 -795,0 -1590,-177 -2182,-520l-2264 -1307c-656,-378 -1498,-561 -2339,-562 -840,1 -1682,184 -2338,562l-568 328 0 0c-341,197 -603,425 -782,676 -180,250 -275,524 -275,798 0,252 81,502 237,727 155,225 383,428 680,599l2120 1224c75,43 171,18 214,-57 43,-75 18,-171 -57,-214l-2121 -1224c-264,-153 -455,-327 -579,-506 -123,-180 -181,-363 -181,-549 0,-201 69,-409 216,-616 148,-206 375,-408 684,-587l569 -328c592,-343 1386,-520 2181,-519 796,-1 1590,176 2182,519l2265 1307c656,378 1497,561 2338,562 841,-1 1682,-184 2338,-562l7777 -4489c328,-190 580,-412 752,-657 172,-244 263,-513 262,-784 1,-271 -90,-540 -262,-784 -172,-245 -424,-467 -752,-656l0 0 -568 -328 0 0c-682,-393 -1549,-586 -2397,-586 -780,0 -1547,163 -2140,505 -1171,676 -2120,1224 -2120,1224 -75,43 -101,139 -58,214 44,75 139,100 214,57z"/>
  <path class="fil3" d="M12686 44217l0 180c0,288 202,639 452,783l1668 963 1696 -979 0 -1469 -1647 -761c-261,-121 -676,-102 -925,42l-792 458c-250,144 -452,494 -452,783z"/>
  <path class="fil4" d="M14855 42934c-261,-121 -676,-102 -925,42l-792 458c-250,144 -240,359 21,480l1647 760 1696 -979 -1647 -761z"/>
  <polygon class="fil5" points="16266,43586 16073,43497 16073,43497 16266,43586 "/>
  <path class="fil6" d="M14594 46020l-174 -100 0 -1208c0,-62 18,-130 50,-193l182 84c-36,67 -58,142 -58,209l0 1208z"/>
  <path class="fil7" d="M14652 44603l-182 -84c41,-83 105,-157 176,-198l1427 -824 193 89 -1446 835c-67,38 -126,106 -168,182z"/>
  <path class="fil3" d="M16646 43442c-40,-23 -96,-20 -158,16l-1668 963c-125,72 -226,247 -226,391l0 1437c0,72 25,123 66,146 38,21 174,100 212,122 41,24 97,21 160,-15l1668 -963c125,-72 226,-247 226,-392l0 -1436c0,-72 -25,-123 -66,-146 -38,-22 -175,-101 -214,-123z"/>
  <path class="fil4" d="M15032 44543l1668 -963c125,-72 226,-13 226,131l0 1436c0,145 -101,320 -226,392l-1668 963c-125,72 -226,14 -226,-130l0 -1437c0,-144 101,-319 226,-392z"/>
  <path class="fil8" d="M16506 45891c117,67 212,232 212,367 0,22 -3,40 -8,58 -17,-5 -35,-11 -54,-22 -117,-68 -212,-232 -212,-368 0,-21 3,-41 8,-59 17,5 35,13 54,24zm254 -262l-1380 -797 -150 87 0 979 1379 797c88,50 167,54 225,21 25,-15 125,-72 150,-87 57,-33 92,-103 92,-204l0 -248c0,-202 -142,-447 -316,-548z"/>
  <path class="fil9" d="M16826 46721l0 -1c5,-2 10,-5 15,-8 0,0 0,0 0,0 -5,3 -9,6 -15,9z"/>
  <path class="fil10" d="M17076 46177c0,-1 0,-2 0,-3 0,1 0,2 0,3l0 0zm0 -3c0,0 0,-1 0,-2 0,1 0,2 0,2zm0 -2c0,-1 0,-2 0,-2 0,0 0,1 0,2zm0 -3c0,0 0,-1 0,-1 0,0 0,1 0,1zm0 -3c0,0 0,0 0,0 0,0 0,0 0,0z"/>
  <path class="fil9" d="M16796 45653c-12,-9 -24,-17 -36,-24l-108 -62 0 0 108 62c12,7 24,15 36,24z"/>
  <path class="fil11" d="M16652 45567l-496 -287 496 287 0 0zm-1345 -692l72 -43 1 0 -73 43z"/>
  <path class="fil10" d="M16833 45951c-57,-99 -136,-185 -223,-236l-269 -154 -1111 -642 77 -44 73 -43 776 448 496 287 108 62c12,7 24,15 36,24 73,51 138,127 187,212l-150 86z"/>
  <path class="fil8" d="M17076 46177l0 248c0,101 -35,171 -92,204 -25,14 -124,72 -150,87l-7 3c61,-31 98,-103 98,-207l0 -249c0,-101 -35,-212 -92,-312l150 -86c57,99 93,210 93,312z"/>
  <path class="fil12" d="M16841 46712c53,-35 85,-104 85,-200l0 -249c0,-101 -36,-213 -93,-312l150 -86c57,99 93,210 93,312l0 248c0,101 -35,171 -92,204 -23,13 -109,63 -143,83z"/>
  <path class="fil2" d="M16710 46316c-5,-2 -10,-3 -16,-5 6,2 11,3 16,4 0,1 0,1 0,1zm-46 -18c-3,-1 -5,-3 -8,-4 -102,-59 -187,-191 -207,-313l0 -1c20,123 105,255 207,314 3,1 5,3 8,4z"/>
  <path class="fil13" d="M16449 45981c-3,-19 -5,-37 -5,-55 0,-21 3,-41 8,-59l0 0c-4,17 -8,37 -8,59l0 0c0,18 2,36 5,54l0 1z"/>
  <path class="fil14" d="M16601 46409c-25,0 -52,-6 -80,-21 -5,-2 -10,-5 -15,-8 -117,-68 -212,-231 -212,-367 0,-96 48,-151 117,-151 13,0 27,2 41,5 -5,18 -8,38 -8,59 0,18 2,36 5,55 20,122 105,254 207,313 3,1 5,3 8,4 10,6 20,10 30,13 6,2 11,3 16,5 0,0 0,0 0,-1 0,0 0,0 0,0 -12,52 -44,84 -87,92 -7,2 -15,2 -22,2z"/>
  <path class="fil15" d="M16751 46738c-43,0 -91,-14 -142,-43l-955 -552 955 552c51,29 99,42 141,42 31,0 59,-7 84,-21 1,-1 3,-2 4,-3 -3,3 -7,5 -11,6l0 0 7 -3 -8 4c-22,12 -48,18 -75,18zm-201 -816c-14,-12 -29,-22 -44,-31l0 0c15,9 30,19 44,31l0 0zm-76 -47c0,0 0,0 0,0 0,0 0,0 0,0zm-1 0c-6,-3 -12,-5 -19,-7 7,2 13,4 19,7zm-19 -7c0,0 0,0 0,0 0,0 0,0 0,0zm-1 0c0,0 0,0 0,0 0,0 0,0 0,0zm0 0c0,0 -1,0 -1,0 0,0 1,0 1,0zm-1 -1l0 0 0 0 0 0z"/>
  <path class="fil16" d="M16750 46737c-42,0 -90,-13 -141,-42l-955 -552 -424 -245 0 -979 1111 642 268 154c88,51 167,137 224,236l0 0 0 0c51,90 85,189 91,281 0,0 0,0 0,0 0,1 1,2 1,2 0,0 0,1 0,1 0,0 0,1 0,2 0,0 0,0 0,0 0,1 0,1 0,2 0,0 0,0 0,1 0,0 0,1 0,1 0,1 0,1 0,1 0,1 0,1 0,2 0,0 0,0 0,0 0,1 0,2 0,2 0,1 0,1 0,1 0,1 0,1 0,2 0,0 0,0 0,0 0,1 0,1 0,2 0,0 0,0 0,1 0,0 0,1 0,2 0,0 0,0 0,0 0,1 0,1 0,2l0 0c0,1 0,2 0,2l0 1c0,0 0,1 0,2l0 0c0,1 0,1 0,2l0 249c0,98 -33,167 -87,201 -1,1 -3,2 -4,3 -25,14 -53,21 -84,21zm-229 -349c28,15 55,21 79,21 8,0 15,0 23,-2 57,-10 95,-64 95,-149l0 0c0,-118 -72,-257 -168,-336 -14,-12 -29,-22 -44,-31l0 0c-11,-7 -21,-12 -32,-16 0,0 0,0 0,0 0,0 0,0 -1,0 -6,-3 -12,-5 -19,-7l0 0c0,0 0,0 0,0 0,0 0,0 -1,0 0,0 0,0 0,0 0,0 0,0 0,0 0,0 -1,0 -1,0 0,0 0,0 0,-1l0 0 0 0c-15,-4 -28,-5 -41,-5 -69,0 -117,55 -117,151l0 0 0 0c0,0 0,0 0,0 0,135 95,300 212,367 5,3 10,6 15,8z"/>
  <path class="fil17" d="M16826 46720l8 -4c2,-1 4,-2 7,-4 -5,3 -10,6 -15,8z"/>
  <path class="fil18" d="M16925 46261l0 0 0 0zm0 -2l0 -1 0 1zm0 -3l0 0 0 0zm0 -2c0,0 0,0 0,0 0,0 0,0 0,0zm0 -2c0,-1 0,-1 0,-1 0,0 0,0 0,1zm0 -3c0,0 0,0 0,0 0,0 0,0 0,0zm0 -2c0,0 0,0 0,-1 0,1 0,1 0,1zm0 -3c0,0 0,0 0,0 0,0 0,0 0,0zm0 -2c0,0 0,0 0,-1 0,1 0,1 0,1zm0 -2c0,-1 0,-1 0,-1 0,0 0,0 0,1zm0 -3c0,0 0,0 0,0 0,0 0,0 0,0zm0 -2c0,0 0,-1 0,-1 0,0 0,1 0,1zm-1 -3c0,0 0,0 0,0 0,0 0,0 0,0zm-91 -281c-57,-99 -136,-185 -224,-236l-268 -154 269 154c87,51 166,137 223,236l0 0z"/>
  <path class="fil19" d="M16827 46719c61,-31 98,-103 98,-207l0 -249c0,-101 -35,-212 -92,-312l0 0c57,99 93,211 93,312l0 249c0,96 -32,165 -85,200 -3,2 -5,3 -7,4l0 0 -7 3z"/>
  <path class="fil20" d="M16600 46409c-24,0 -51,-6 -79,-21 28,15 55,21 80,21 7,0 15,0 22,-2 -8,2 -15,2 -23,2z"/>
  <path class="fil20" d="M16294 46013l0 0c0,-96 48,-151 117,-151 13,0 26,1 41,5l0 0c-14,-3 -28,-5 -41,-5 -69,0 -117,55 -117,151z"/>
  <path class="fil8" d="M17628 45243c117,68 212,232 212,367 0,22 -3,41 -8,58 -17,-5 -35,-11 -54,-22 -117,-68 -212,-232 -212,-367 0,-22 3,-42 8,-59 17,4 35,12 54,23zm254 -262l-1380 -797 -150 87 0 979 1380 797c87,50 167,55 224,21 26,-15 125,-72 150,-87 57,-33 92,-103 92,-204l0 -248c0,-202 -141,-447 -316,-548z"/>
  <path class="fil9" d="M17949 46073l0 -1c5,-2 9,-5 14,-8 0,0 0,0 1,0 -5,3 -10,6 -15,9z"/>
  <path class="fil10" d="M18198 45529c0,-1 0,-2 0,-2 0,0 0,1 0,2l0 0zm0 -3c0,0 0,-1 0,-2 0,1 0,2 0,2zm0 -2c0,-1 0,-1 0,-2 0,1 0,1 0,2zm0 -3c0,0 0,-1 0,-1 0,0 0,1 0,1zm0 -3c0,0 0,0 0,0 0,0 0,0 0,0z"/>
  <path class="fil17" d="M17893 44987l-1 0c-3,-2 -7,-4 -10,-6l-272 -157 272 157c3,2 7,4 11,6z"/>
  <path class="fil9" d="M17898 44991c-2,-1 -4,-3 -6,-4l1 0c2,2 4,3 5,4z"/>
  <polygon class="fil11" points="16438,44221 16502,44184 16502,44184 "/>
  <path class="fil10" d="M17955 45303c-57,-99 -136,-185 -223,-235l-268 -155 -1112 -642 86 -50 64 -37 1108 640 272 157c3,2 7,4 10,6 2,1 4,3 6,4 81,51 153,133 207,226l-150 86z"/>
  <path class="fil8" d="M18198 45529l0 248c0,102 -34,171 -92,204 -25,14 -124,72 -150,88l-6 3c60,-32 98,-104 98,-208l0 -249c0,-101 -36,-211 -93,-312l150 -86c58,99 93,211 93,312z"/>
  <path class="fil12" d="M17963 46064c53,-34 85,-103 85,-200l0 -248c0,-101 -35,-213 -93,-313l150 -86c58,99 93,211 93,312l0 248c0,102 -34,171 -92,204 -23,13 -110,63 -143,83z"/>
  <path class="fil2" d="M17832 45668c-4,-1 -9,-3 -14,-4 5,1 10,2 15,4 0,0 0,0 -1,0zm-47 -18c-2,-2 -4,-3 -7,-4 -102,-59 -187,-191 -207,-314l0 0c20,123 106,255 207,314 3,1 5,2 7,4z"/>
  <path class="fil13" d="M17571 45332c-3,-18 -5,-36 -5,-53 0,-22 3,-42 8,-59l0 0c-4,16 -7,36 -7,58l0 0c0,18 1,36 4,54l0 0z"/>
  <path class="fil14" d="M17723 45761c-24,0 -52,-6 -80,-21 -5,-2 -10,-5 -15,-8 -117,-67 -212,-231 -212,-367 0,-96 48,-151 118,-151 12,0 26,2 40,6 -5,17 -8,37 -8,59 0,17 2,35 5,53 20,123 105,255 207,314 3,1 5,2 7,4 11,6 22,10 33,14 5,1 10,3 14,4 1,0 1,0 1,0 0,0 0,0 0,0 -12,47 -41,79 -79,89 -10,3 -20,4 -31,4z"/>
  <path class="fil15" d="M17873 46090c-41,0 -88,-13 -137,-40 49,27 95,40 136,40 31,0 60,-8 84,-22 1,-1 3,-2 4,-2 -3,2 -7,4 -10,6l0 0 6 -3 -7 3c-22,12 -48,18 -76,18zm-201 -816c-14,-12 -29,-22 -44,-31 -18,-11 -37,-19 -54,-23 0,0 0,0 0,0l0 0c17,4 35,12 54,23 15,9 30,19 44,31l0 0z"/>
  <path class="fil16" d="M17872 46090c-41,0 -87,-13 -136,-40 -1,-1 -3,-2 -4,-3l0 0 -966 -558 -414 -239 0 -979 1112 642 267 154c88,51 167,137 224,236l0 0 0 0c52,92 87,192 92,286l0 0c0,1 0,2 0,3l0 0c0,0 0,1 0,2 0,0 0,0 0,0 0,1 0,2 0,2 0,0 0,0 0,0 0,1 0,2 0,3 0,0 0,0 0,0 1,1 1,1 1,2 0,0 0,0 0,0 0,1 0,2 0,2 0,0 0,1 0,1 0,0 0,1 0,2 0,0 0,0 0,0 0,1 0,2 0,2 0,0 0,0 0,0 0,1 0,2 0,3 0,0 0,0 0,0 0,1 0,3 0,4l0 249c0,98 -33,168 -88,202 -1,0 -3,1 -4,2 -24,14 -53,22 -84,22zm-229 -350c28,15 55,22 80,22 11,0 21,-2 31,-5 52,-14 86,-66 86,-147l0 0c0,-118 -72,-257 -168,-336 -14,-12 -29,-22 -44,-31 -19,-11 -37,-19 -54,-23l0 0c-14,-4 -28,-6 -41,-6 -69,0 -117,55 -117,151l0 0c0,0 0,0 0,0 0,0 0,0 0,0 0,136 95,300 212,368 5,2 10,5 15,7z"/>
  <path class="fil17" d="M17949 46072l7 -3c2,-2 4,-3 7,-5 -5,3 -9,6 -14,8z"/>
  <path class="fil18" d="M18048 45611c0,0 0,0 0,0 0,0 0,0 0,0zm0 -3c0,0 0,0 0,0 0,0 0,0 0,0zm0 -2c0,0 0,0 0,0 0,0 0,0 0,0zm0 -2c0,0 0,-1 0,-1 0,0 0,1 0,1zm0 -3c0,0 0,0 0,0 0,0 0,0 0,0zm-1 -2c0,0 0,0 0,0 0,0 0,0 0,0zm0 -3c0,0 0,0 0,0 0,0 0,0 0,0zm0 -2c0,0 0,0 0,0 0,0 0,0 0,0zm0 -2l0 0c0,0 0,0 0,0zm0 -3l0 0c0,0 0,0 0,0z"/>
  <path class="fil18" d="M17955 45303c-57,-99 -136,-185 -224,-236l-267 -154 268 155c87,50 166,136 223,235l0 0z"/>
  <path class="fil19" d="M17950 46072c60,-32 98,-104 98,-208l0 -249c0,-101 -36,-211 -93,-312l0 0c58,100 93,212 93,313l0 248c0,97 -32,166 -85,200 -3,2 -5,3 -7,5l0 0 -6 3z"/>
  <path class="fil20" d="M17723 45762c-25,0 -52,-7 -80,-22 28,15 56,21 80,21 11,0 21,-1 31,-4 -10,3 -20,5 -31,5z"/>
  <path class="fil21" d="M17574 45220l0 0c0,0 0,0 0,0l0 0c0,0 0,0 0,0z"/>
  <path class="fil20" d="M17416 45365c0,0 0,0 0,0 0,-96 48,-151 117,-151 13,0 27,2 41,6 0,0 0,0 0,0 -14,-4 -28,-6 -40,-6 -70,0 -118,55 -118,151z"/>
  <path class="fil8" d="M22632 39496l3926 -2270c404,-233 607,-540 607,-846 0,-306 1,-546 1,-546l-4073 -2296c-215,-125 -390,-428 -390,-677l0 -4840 -6857 3962 0 4840c0,249 175,552 391,677l3464 1996c810,467 2122,467 2931,0z"/>
  <path class="fil22" d="M21167 39846c-531,0 -1061,-116 -1466,-350l-2209 -1273 0 -543 -417 -242 417 241 1 -1 2208 1272c405,234 935,351 1466,351 22,0 44,0 67,-1l0 543c507,-9 1010,-122 1398,-348l1605 -927 -1605 928c-405,234 -935,350 -1465,350zm379 -565c398,-43 778,-153 1086,-330l2673 -1545 -2673 1545c-308,178 -688,288 -1086,330zm5620 -3299c0,-50 0,-89 0,-114 0,-11 0,-22 0,-33 0,0 0,-1 0,-1l0 0c0,0 0,56 0,148z"/>
  <path class="fil22" d="M16569 37116c-77,-78 -142,-177 -186,-281 31,73 73,145 122,208 20,26 42,50 64,73z"/>
  <polygon class="fil23" points="17492,38223 17483,38218 17483,38218 17492,38223 "/>
  <path class="fil24" d="M17483 38218l-1248 -719c-214,-124 -390,-426 -390,-677l0 -604 1 -1 0 606c0,249 175,552 391,677l1246 718 0 0z"/>
  <path class="fil25" d="M17492 38223l-9 -5 -1246 -718c-216,-125 -391,-428 -391,-677l0 -606 473 -273 0 606c0,92 23,190 64,285 44,104 109,203 186,281 44,44 91,83 140,111l23 13 343 198 417 242 0 543z"/>
  <path class="fil8" d="M16319 36550c0,250 175,553 390,677l2992 1723c809,467 2121,468 2931,1l3927 -2270c810,-467 810,-1225 1,-1692l-2994 -1724c-215,-125 -390,-428 -390,-677l0 -3782 -6857 3962 0 3782z"/>
  <path class="fil26" d="M21167 39301c-531,0 -1061,-117 -1466,-351l-2208 -1272 6869 -3953 0 -1 -796 -459c-215,-125 -390,-428 -390,-677l0 0c0,249 175,552 390,677l2994 1724c404,234 606,540 606,846 0,11 0,22 0,33 0,-22 0,-33 0,-33l0 0c0,306 -203,613 -607,846l-1254 725 -2673 1545c-308,177 -688,287 -1086,330 -103,10 -208,16 -312,18l0 1c-23,1 -45,1 -67,1z"/>
  <path class="fil26" d="M16732 37240l-23 -13c-74,-43 -144,-108 -204,-184 60,76 130,141 205,184l22 13z"/>
  <polygon class="fil27" points="17492,37679 17075,37438 16931,37355 17493,37678 "/>
  <polygon class="fil28" points="17075,37438 16732,37240 16931,37355 "/>
  <path class="fil27" d="M16505 37043c-49,-63 -91,-135 -122,-208 -3,-7 -6,-14 -9,-20 33,81 78,159 131,228z"/>
  <path class="fil28" d="M16383 36835c-41,-95 -64,-193 -64,-285l0 -606 0 0 0 606c0,85 20,176 55,265 3,6 6,13 9,20z"/>
  <polygon class="fil29" points="23176,32588 23176,32588 23176,31985 23176,31985 "/>
  <path class="fil30" d="M17493 37678l-562 -323 -199 -115 -22 -13c-75,-43 -145,-108 -205,-184 -53,-69 -98,-147 -131,-228 -35,-89 -55,-180 -55,-265l0 -606 6857 -3959 0 603c0,249 175,552 390,677l796 459 0 1 -6869 3953z"/>
  <path class="fil8" d="M27166 35835c0,0 0,239 0,546 0,306 -203,611 -607,846l-3927 2268c-388,226 -891,339 -1398,348l0 -544c507,-7 1010,-124 1398,-348l3927 -2270c404,-233 607,-540 607,-846z"/>
  <path class="fil31" d="M21234 39843l0 -544c507,-7 1010,-124 1398,-348l3927 -2270c404,-233 607,-540 607,-846 0,0 0,239 0,546 0,306 -203,611 -607,846l-3927 2268c-388,226 -891,339 -1398,348z"/>
  <path class="fil8" d="M5309 41251c253,146 677,138 947,-18 3371,-1946 23147,-13363 26517,-15309 270,-155 488,-534 488,-428l0 -24146c0,-728 -205,-1099 -458,-1246 -116,-67 -268,-101 -425,-104l-42 0c-171,3 -345,44 -479,122l-26517 15309c-270,156 -488,535 -488,846l-1 24145c0,312 205,683 458,829z"/>
  <path class="fil8" d="M6256 41233l26517 -15309c270,-156 489,-535 489,-429l0 -24145c0,-729 -219,-855 -489,-700l-26516 15310c-270,155 -489,534 -489,846l0 24145c0,311 219,438 488,282z"/>
  <g>
   <path class="fil31" d="M5768 39933l0 -23127c0,-39 4,-79 10,-119 12,-73 33,-147 63,-220 50,-121 122,-238 208,-335 63,-70 134,-129 208,-172l8761 -5059 17755 -10251c66,-37 128,-59 185,-59 178,0 304,207 304,759l0 1113 -917 529 0 -697c0,-133 -66,-209 -163,-209 -39,0 -83,12 -130,40l-25075 14476c-162,94 -293,321 -293,508l0 20898 0 0c0,133 66,209 162,209 40,0 84,-12 131,-40l1527 -881 0 1057 -2736 1580 0 0zm27494 -14438c0,-1 0,-2 0,-4l0 -101 0 0 0 105z"/>
  </g>
  <path class="fil8" d="M6184 41790c-270,120 -645,116 -875,-18 -253,-146 -458,-516 -458,-830l0 -1536 916 531 0 1535c0,285 180,413 417,318z"/>
  <path class="fil31" d="M5752 41876c-163,0 -323,-34 -443,-104 -253,-146 -458,-516 -458,-830l0 -1536 916 531 0 1535c0,222 110,349 271,349 45,0 94,-10 146,-31 -129,58 -282,86 -432,86z"/>
  <path class="fil8" d="M5767 39937l1 1535c0,311 219,437 488,282l26517 -15310c270,-155 489,-534 489,-846l0 -1539 -27495 15878z"/>
  <polygon class="fil26" points="5768,39936 5768,39933 5768,39936 5767,39937 "/>
  <polygon class="fil30" points="5768,39936 5768,39933 8504,38353 8504,38356 5767,39937 "/>
  <path class="fil26" d="M6038 41820c-160,0 -270,-127 -270,-348l0 -1536 -1 1 2737 -1581 0 522c0,155 101,339 228,412 61,35 140,52 221,52 20,0 39,-1 59,-3 116,-11 175,-48 188,-56 1,-1 2,-1 3,-2l24059 -13891 0 208c0,312 -219,691 -489,846l-9597 5541 -6857 3959 0 0 -473 273 -1 1 -9589 5536c-78,45 -152,66 -218,66zm2922 -2678c0,-1 0,-1 0,-1 0,0 0,0 0,1z"/>
  <path class="fil8" d="M6684 38008l0 -20898c0,-187 131,-414 293,-508l25075 -14476c161,-94 293,-18 293,169l0 20899c0,186 -131,414 -293,507l-25075 14476c-162,94 -293,18 -293,-169z"/>
  <path class="fil32" d="M6684 38008l0 -20898c0,-187 131,-414 293,-508l25075 -14476c161,-94 293,-18 293,169l0 20899c0,186 -131,414 -293,507l-25075 14476c-162,94 -293,18 -293,-169z"/>
  <polygon class="fil33" points="4851,28999 4852,16277 4851,28999 "/>
  <polygon class="fil34" points="4851,39157 4851,28999 4851,28999 4851,39157 "/>
  <polygon class="fil35" points="4851,39407 4851,39406 4851,39157 4851,39157 "/>
  <path class="fil33" d="M4995 15795c0,0 0,0 0,0l0 0c0,0 0,0 0,0z"/>
  <path class="fil36" d="M5767 39937l0 0 -916 -530 0 -250 0 -10158 1 -12722c0,-155 55,-329 143,-482 0,0 0,0 0,0l532 306 384 222c0,0 0,0 0,-1l0 0c-26,47 -50,96 -70,145 -30,73 -51,147 -63,220 -7,40 -10,80 -11,118l0 23132z"/>
  <path class="fil37" d="M5778 16687c12,-73 33,-147 63,-220 -30,73 -51,147 -63,220z"/>
  <path class="fil38" d="M4996 15794l-1 0c34,-58 73,-114 116,-165 -43,51 -81,106 -115,165zm27388 -15794l-5 0c92,2 182,14 264,38 -80,-23 -169,-36 -259,-38zm-48 0l-4 0c-71,2 -141,10 -210,24 70,-15 142,-23 214,-24zm-27225 15629c1,-1 1,-1 1,-1 0,0 0,0 -1,1zm63 -69c0,0 0,0 0,0 0,0 0,0 0,0zm1 -1c35,-35 73,-66 112,-94 -39,28 -77,59 -112,94zm28082 -14707c-11,-76 -37,-138 -75,-183 -82,-294 -219,-471 -375,-562 230,134 419,454 450,745z"/>
  <path class="fil26" d="M5911 16322l-384 -221 -531 -307c34,-59 72,-114 115,-165 0,0 0,0 0,0 1,-1 1,-1 1,-1 20,-24 41,-46 62,-68 0,0 0,0 0,0 1,0 1,0 1,-1 35,-35 73,-66 112,-94 17,-12 35,-24 53,-34l26517 -15309c78,-45 169,-78 265,-98 70,-15 142,-23 214,-24l43 0c92,2 182,14 264,38 58,17 113,39 161,67 1,0 2,1 3,2 156,91 293,268 375,562 -48,-56 -113,-85 -191,-85 -66,0 -140,21 -218,66l-17755 10251 -8761 5059c-74,42 -145,102 -208,172 -51,57 -97,122 -138,190z"/>
  <path class="fil30" d="M6049 16132c63,-70 134,-130 208,-172l8761 -5059 -8761 5059c-74,43 -145,102 -208,172z"/>
  <path class="fil39" d="M5911 16323l-384 -222 384 221c0,1 0,1 0,1z"/>
  <path class="fil40" d="M9203 39281c-3,1 -62,45 -191,58 -100,10 -205,-5 -280,-49 -127,-73 -228,-257 -228,-412l-1 -18958 457 264 0 18957c0,110 55,173 135,173 11,0 55,-3 108,-33z"/>
  <path class="fil9" d="M9095 39258c-71,0 -79,-82 -79,-117l0 -20506 642 -370c78,-46 142,-248 268,-699 67,-238 167,-597 219,-637l5795 -3346c50,26 159,218 225,334 141,249 226,390 322,390 17,0 32,-4 46,-12l17815 -10288 0 20441c0,135 -98,306 -214,373l-24959 14411c-29,17 -57,26 -80,26z"/>
  <path class="fil2" d="M34405 3910l-17900 10336 -18 5c-136,0 -412,-726 -549,-726l-18 5 -5804 3351c-135,78 -353,1257 -486,1335l-670 386 0 20539c0,110 55,173 135,173 32,0 69,-10 108,-33l24959 -14411c135,-78 243,-267 243,-422l0 -20538zm-18429 9717l0 0 0 0zm18316 -9522l0 20343c0,116 -87,267 -186,325l-24959 14411c-28,16 -46,18 -52,18 -22,0 -23,-59 -23,-61l0 -20474 614 -354c97,-56 158,-245 294,-732 61,-217 152,-542 201,-608l5752 -3321c49,58 131,201 183,292 156,276 244,419 371,419 26,0 52,-7 74,-20l17731 -10238z"/>
  <path class="fil8" d="M8732 19351c-126,-73 -229,-258 -229,-413l0 -1899c0,-155 109,-344 244,-421l24958 -14412c135,-77 346,-81 472,-8 126,72 228,257 227,412l1 1900c0,155 -109,343 -243,421l-24959 14411c-134,78 -345,82 -471,9z"/>
  <path class="fil17" d="M34105 2167c-40,-12 -83,-19 -127,-21 44,2 87,9 127,21z"/>
  <path class="fil41" d="M9031 17063l-456 -264c45,-76 104,-142 172,-181l24959 -14411c69,-41 160,-61 249,-61 8,0 15,0 23,0 44,2 87,9 127,21 26,8 50,18 71,31 116,67 212,227 226,373 -11,-86 -62,-135 -132,-135 -33,0 -70,11 -108,34l-24959 14411 0 0c-62,36 -119,96 -162,166 -4,5 -7,11 -10,16z"/>
  <path class="fil42" d="M8960 20184l0 0 -457 -264 0 -2881 0 0 0 1899c0,155 103,340 229,413 60,35 140,52 221,52 2,0 5,0 7,0l0 781z"/>
  <path class="fil42" d="M8503 17039c0,-10 0,-19 1,-29 2,-23 5,-40 10,-60 12,-51 33,-104 60,-151 -44,77 -71,163 -71,240z"/>
  <path class="fil43" d="M8953 19403c-81,0 -161,-17 -221,-52 -126,-73 -229,-258 -229,-413l0 -1899 0 0c0,-77 27,-163 71,-240 1,0 1,0 1,0l456 264c-44,75 -71,162 -71,239l0 2101c-2,0 -5,0 -7,0z"/>
  <path class="fil8" d="M34404 2610l1 1300 -17900 10336c-134,78 -242,15 -242,-140l0 -492c0,-156 -109,-219 -244,-141l-5903 3408c-135,78 -244,266 -244,421l0 493c0,155 -109,343 -242,421l-670 386 0 -1300c0,-155 109,-343 243,-421l24959 -14411c133,-78 242,-15 242,140z"/>
  <path class="fil17" d="M33264 3425c169,-97 306,-18 306,177 0,195 -137,433 -306,530 -169,98 -306,19 -306,-176 0,-196 137,-433 306,-531z"/>
  <path class="fil17" d="M32162 4061c169,-98 306,-19 306,177 0,195 -137,432 -306,530 -169,97 -306,18 -306,-177 0,-195 137,-433 306,-530z"/>
  <path class="fil17" d="M31060 4696c169,-97 306,-18 306,177 0,195 -137,433 -306,530 -169,98 -306,19 -306,-177 0,-195 137,-432 306,-530z"/>
  <path class="fil44" d="M34405 3910l0 1582 -25445 14692 0 -1582 500 -289c134,-78 179,-196 243,-422l169 -589c54,-204 109,-343 244,-421l5804 -3351c135,-77 240,-86 343,84l208 377c76,132 114,210 248,132l17686 -10213z"/>
  <polygon class="fil2" points="8960,18602 8960,20184 8503,19920 8503,18340 "/>
  <path class="fil45" d="M9820 19238l-21 0 -207 -159 -1 -1 -5 -8 -2 -3 -2 -18 2 -20 2 -5 5 -15 1 -1 207 -399c9,-17 21,-27 31,-27 5,0 9,2 13,6 11,14 9,44 -3,69l-146 280 382 -221c4,-2 7,-3 11,-3 11,0 20,13 20,33 0,26 -14,55 -31,65l-382 221 146 111c12,10 14,39 3,66 -7,14 -15,24 -23,29z"/>
  <path class="fil45" d="M10652 18758l-24 -3c-11,-13 -10,-44 3,-69l146 -280 -382 221c-4,2 -7,3 -11,3 -11,0 -20,-12 -20,-33 0,-26 14,-55 31,-65l382 -220 -146 -112c-13,-10 -14,-39 -3,-65 9,-21 23,-33 34,-33 4,0 7,1 10,3l207 160 0 0 6 9 2 3 2 17 -2 21 -2 5 -6 14 0 2 -207 398c-6,11 -13,20 -20,24z"/>
  <path class="fil45" d="M11379 18361c-32,0 -61,-11 -86,-36 -95,-91 -95,-327 0,-528 69,-147 170,-232 256,-232 5,0 9,0 14,0l52 -128c6,-13 14,-20 21,-20 6,0 11,5 12,15l23 224c1,16 -7,35 -18,42l-156 102c-2,2 -5,3 -7,3 -11,0 -16,-20 -8,-41l40 -96c-63,4 -136,67 -186,173 -71,150 -71,326 0,394 19,19 41,27 64,27 65,0 140,-65 192,-174 9,-19 22,-30 33,-30 4,0 7,1 11,4 12,12 12,42 0,67 -48,101 -110,173 -172,209 -29,16 -58,25 -85,25z"/>
  <path class="fil45" d="M15509 14714c-5,0 -10,-2 -15,-7 -16,-15 -16,-56 0,-91l139 -295 -139 -134c-16,-16 -16,-57 0,-92 12,-25 30,-40 45,-40 5,0 10,2 15,6l139 134 139 -295c12,-25 30,-41 45,-41 5,0 10,2 15,7 16,16 16,57 0,92l-140 294 140 134c16,16 16,57 0,92 -9,17 -19,30 -30,36 -5,3 -10,4 -15,4 -5,0 -11,-2 -15,-6l-139 -134 -139 295c-9,17 -19,30 -30,36 -5,3 -10,5 -15,5z"/>
  <path class="fil9" d="M12155 17795l0 -492c0,-156 109,-344 243,-422l20394 -11770c135,-78 244,-15 244,140l0 492c0,155 -109,344 -244,422l-20394 11770c-134,78 -243,15 -243,-140z"/>
  <path class="fil2" d="M32651 5371l-38 18 70 151 37 14 15 6 158 -61 -8 -20 0 21 8 -1 -8 -20 0 21 0 -27 -23 15 23 12 0 -27 -23 15 14 -9 -16 4 2 5 14 -9 -16 4 5 -1 -5 0 0 1 5 -1 -5 0 0 1 -4 11 0 0 -103 194 0 0c-8,16 -13,33 -13,51l0 12 25 176 0 0 0 0 -5 14 -2 2 0 1 10 13 0 -16 -10 3 10 13 0 -16 0 26 4 -26 -4 0 0 26 4 -26 -128 -16 0 0 -7 0c-28,1 -45,16 -57,31l-2 2 -126 161 -2 2 5 5 -3 -6 -2 1 5 5 -3 -6 9 20 0 -22 -9 2 9 20 0 -22 0 27 22 -16 -22 -11 0 27 22 -16 -15 11 18 -5 -3 -6 -15 11 18 -5 -7 2 8 -1 -1 -1 -7 2 8 -1 0 0 0 -2 24 -203 0 0 1 -12c0,-17 -4,-39 -26,-56l0 0 -103 -74 0 0 -14 19 22 -9 -8 -10 -14 19 22 -9 -11 5 12 -2 -1 -3 -11 5 12 -2 0 0 2 -10 5 -7 2 -2 141 -109 0 0c18,-14 29,-32 35,-53l1 0 64 -210 -1 1 6 -11 0 0 -10 -14 0 16 10 -2 -10 -14 0 16 0 -28 -16 23 16 5 0 -28 -16 23 14 -20 -22 11 8 9 14 -20 -22 11 0 0 38 -18 38 -18c-4,-9 -11,-18 -21,-25 -9,-6 -21,-9 -31,-9 -24,1 -38,11 -50,23 -12,12 -21,27 -26,45l-64 210 0 -1 -4 8 -2 4 -143 110 0 0c-28,23 -39,53 -40,84 0,16 3,38 25,55l0 0 104 75 0 0 14 -19 -23 8 9 11 14 -19 -23 8 11 -4 -11 2 0 2 11 -4 -11 2 0 0 0 2 -1 1 -24 203 0 0 -1 11c0,14 3,29 13,43 10,14 29,24 46,23 27,0 44,-15 57,-31l128 -163 0 0 1 -2 0 0 -10 -15 0 18 10 -3 -10 -15 0 18 0 -27 -3 27 3 0 0 -27 -3 27 -1 0 128 16 7 0c17,0 29,-6 39,-13 14,-10 23,-23 30,-37 7,-14 12,-30 12,-48l-1 -12 0 -2 -24 -174 0 0 3 -11 0 0 104 -194 0 0c8,-17 13,-34 13,-51 0,-13 -2,-27 -11,-41 -8,-14 -28,-26 -48,-26l-22 4 -128 49 -5 -2 -16 39 39 -17 -64 -136 0 0 -38 18z"/>
  <path class="fil45" d="M33323 5051c-30,0 -58,-16 -73,-43 -24,-40 -10,-91 30,-115l685 -395c13,-8 28,-11 42,-11 29,0 57,15 73,42 23,40 9,92 -31,115l-684 395c-14,8 -28,12 -42,12z"/>
  <path class="fil45" d="M33323 5446c-30,0 -58,-15 -73,-42 -24,-41 -10,-92 30,-115l685 -396c13,-7 28,-11 42,-11 29,0 57,15 73,42 23,41 9,92 -31,115l-684 396c-14,7 -28,11 -42,11z"/>
  <path class="fil45" d="M33323 5841c-30,0 -58,-15 -73,-42 -24,-40 -10,-92 30,-115l685 -395c13,-8 28,-12 42,-12 29,0 57,16 73,43 23,40 9,91 -31,115l-684 395c-14,8 -28,11 -42,11z"/>
  <path class="fil46" d="M9711 20627c-29,0 -58,-15 -73,-42 -24,-40 -10,-92 31,-115l684 -395c14,-8 28,-11 42,-11 29,0 58,15 73,42 24,40 10,92 -31,115l-684 395c-13,8 -28,11 -42,11z"/>
  <path class="fil46" d="M9711 21023c-29,0 -58,-15 -73,-42 -24,-41 -10,-92 31,-115l684 -396c14,-7 28,-11 42,-11 29,0 58,15 73,42 24,40 10,92 -31,115l-684 396c-13,7 -28,11 -42,11z"/>
  <path class="fil46" d="M9711 21418c-29,0 -58,-15 -73,-42 -24,-40 -10,-92 31,-115l684 -395c14,-8 28,-12 42,-12 29,0 58,15 73,42 24,41 10,92 -31,116l-684 395c-13,8 -28,11 -42,11z"/>
  <path class="fil44" d="M15784 17141l0 607c0,124 88,175 196,113l8134 -4704 0 -1057 -8135 4703c-107,62 -195,214 -195,338z"/>
  <path class="fil8" d="M25140 11508c108,-62 195,-12 195,112l0 607c0,124 -87,276 -195,338l-1026 592 0 -1057 1026 -592z"/>
  <path class="fil9" d="M24697 12559c-32,18 -60,21 -82,8 -38,-22 -62,-88 -62,-171 0,-160 85,-344 186,-403 19,-10 36,-16 52,-16 11,0 21,3 30,8 38,22 62,88 62,171 0,160 -85,344 -186,403zm367 -220l-115 -35c12,-49 19,-99 19,-148 0,-117 -38,-206 -104,-244 -50,-28 -109,-26 -167,8 -128,74 -229,283 -229,476 0,117 38,206 104,244 23,13 47,20 73,20 31,0 63,-10 94,-28 77,-44 144,-138 185,-247l115 35 12 2c18,0 35,-11 41,-30 7,-22 -6,-46 -28,-53z"/>
  <path class="fil8" d="M12403 18868l-1174 679c-108,62 -195,213 -195,337l0 604c0,124 87,175 195,113l1174 -679c108,-63 195,-213 195,-337l0 -605c0,-124 -87,-174 -195,-112z"/>
  <path class="fil8" d="M32827 7075c-253,146 -458,501 -458,793 0,292 205,410 458,265 253,-146 458,-501 458,-793 0,-292 -205,-411 -458,-265z"/>
  <path class="fil17" d="M32774 7541c-15,0 -29,-4 -41,-11 -28,-16 -44,-49 -44,-91 0,-78 53,-170 120,-209l0 0c37,-21 73,-24 102,-8 28,17 44,49 44,92 0,78 -53,170 -121,209 -21,12 -41,18 -60,18z"/>
  <path class="fil17" d="M33008 7571c-45,-26 -102,-21 -161,13l-67 38c-115,67 -206,224 -206,357l0 47c66,36 155,30 253,-27 98,-57 188,-153 253,-265l0 -11c0,-70 -26,-125 -72,-152z"/>
  <path class="fil8" d="M31208 8491l0 -161c0,-185 -112,-269 -250,-190 -138,80 -251,294 -251,479l0 144c0,91 -31,194 -84,282l0 1c-13,23 -21,49 -21,74 0,46 29,68 63,47l585 -337c35,-20 63,-74 63,-121 0,-23 -7,-40 -18,-49l-1 0c-52,-23 -86,-82 -86,-169z"/>
  <path class="fil8" d="M31078 8979c0,89 -54,191 -120,230 -67,38 -120,-3 -120,-91l240 -139z"/>
  <path class="fil8" d="M29133 10223c0,11 -3,22 -8,33 -5,11 -11,18 -18,22l-121 70 -19 -1c-5,-5 -7,-13 -7,-24l0 -149c0,-11 2,-22 7,-33 5,-11 11,-18 19,-22l121 -70 18 1c5,5 8,13 8,24l0 149zm-84 -963c36,-21 70,-33 102,-36 32,-3 59,2 82,16 24,14 42,35 56,64 13,30 20,67 20,111 0,35 -4,69 -12,100 -7,31 -17,61 -29,89 -12,29 -25,56 -39,81 -14,26 -28,51 -41,75 -13,25 -25,49 -35,73 -11,25 -18,49 -22,73 -2,12 -5,23 -9,33 -4,11 -10,18 -17,22l-117 68 -19 -2c-5,-5 -7,-12 -7,-23 0,-33 4,-65 12,-95 9,-31 20,-61 33,-89 13,-29 27,-56 42,-83 15,-26 29,-51 41,-75 13,-24 24,-47 33,-68 8,-22 13,-43 13,-63 0,-28 -7,-47 -22,-55 -14,-8 -35,-4 -65,13 -29,17 -49,36 -62,56 -13,21 -22,41 -27,60 -6,19 -11,36 -15,52 -4,16 -13,27 -25,34l-117 68 -15 0c-4,-4 -6,-11 -6,-20 0,-35 7,-75 19,-120 12,-45 29,-91 52,-136 23,-45 51,-88 83,-127 33,-40 71,-72 113,-96z"/>
  <path class="fil2" d="M15078 24466l358 -206 0 -694 -358 900zm718 3598c-96,0 -185,-36 -257,-106 -94,-90 -142,-218 -142,-380l0 -772 -2065 1192c-66,38 -134,57 -203,57 -96,0 -184,-36 -256,-106 -95,-90 -143,-218 -143,-380l0 -1272c0,-239 40,-464 119,-669l2333 -5874c56,-140 110,-241 164,-311 60,-78 139,-145 236,-201l1177 -680c67,-38 135,-57 204,-57 95,0 184,36 256,105 95,92 142,220 142,381l0 4157 279 -161c66,-38 135,-57 204,-57 95,0 183,36 255,105 96,93 143,220 143,381l0 1272c0,127 -29,253 -87,376 -64,136 -150,236 -253,296l-541 312 0 1073c0,127 -29,253 -87,376 -65,137 -150,237 -254,296l-1021 590c-66,38 -134,57 -203,57z"/>
  <path class="fil2" d="M21460 18295c-22,0 -90,8 -222,84 -126,73 -232,164 -315,269 -87,111 -158,236 -211,371 -56,143 -98,301 -126,468 -29,174 -46,358 -51,547 -26,673 -26,1345 0,2000 4,185 20,347 46,485 26,139 64,211 92,248 26,34 48,43 75,46l2 0c32,0 99,-10 228,-84 126,-73 232,-163 315,-268 88,-113 161,-239 216,-377 57,-142 99,-297 125,-462 27,-172 43,-357 47,-548 21,-684 21,-1358 0,-2001 -9,-176 -27,-339 -53,-479 -22,-112 -54,-201 -94,-257 -21,-31 -40,-39 -66,-42l-8 0zm-1308 7160c-21,0 -42,-1 -63,-2 -347,-17 -640,-146 -872,-384 -215,-221 -376,-529 -478,-915 -95,-360 -152,-766 -168,-1207 -11,-323 -16,-678 -16,-1057 0,-379 5,-749 15,-1097 17,-456 72,-920 166,-1380 94,-465 239,-913 431,-1333 193,-422 440,-815 734,-1169 300,-361 662,-665 1077,-905 411,-237 766,-352 1087,-352 21,0 41,0 62,1 348,18 641,147 872,384 215,222 376,530 478,915 96,361 152,767 169,1208 10,345 15,709 15,1081 0,373 -5,734 -15,1073 -16,455 -72,918 -165,1379 -95,466 -240,914 -432,1334 -193,421 -440,815 -734,1169 -299,360 -662,664 -1076,904 -411,237 -767,353 -1087,353z"/>
  <path class="fil2" d="M26527 17857l358 -207 0 -694 -358 901zm717 3598c-96,0 -185,-37 -257,-107 -93,-90 -141,-218 -141,-379l0 -773 -2065 1192c-66,38 -134,58 -203,58 -96,0 -185,-37 -257,-106 -94,-91 -142,-219 -142,-380l0 -1273c0,-239 40,-464 119,-669l2332 -5874c57,-140 111,-241 164,-311 61,-78 140,-145 237,-201l1177 -680c66,-38 135,-57 203,-57 96,0 185,36 256,105 95,92 143,220 143,381l0 4158 279 -162c66,-38 134,-57 203,-57 96,0 184,36 256,105 96,93 143,220 143,381l0 1272c0,127 -29,253 -87,376 -64,136 -150,236 -254,296l-540 312 0 1074c0,126 -29,252 -87,375 -65,137 -150,237 -254,297l-1021 589c-66,38 -135,58 -204,58z"/>
  <path class="fil8" d="M18815 23750l-26 -19c-36,-20 -793,-457 -793,-457l0 -3756c0,-88 -21,-152 -62,-193l-25 -19c-36,-20 -839,-484 -847,-488 -36,-22 -78,-19 -124,7l-1178 680c-67,39 -121,84 -160,134 -38,51 -81,134 -128,249l-2332 5872c-67,175 -101,366 -101,574l0 1273c0,88 21,152 62,192l27 20c35,20 838,484 847,489 36,21 76,18 123,-9l1608 -929 0 246c0,88 20,152 62,192l25 19c36,21 839,484 848,489 36,21 77,19 123,-8l1022 -590c57,-33 106,-93 148,-181 41,-88 62,-176 62,-265l0 -1224 671 -387c57,-33 106,-93 148,-182 41,-88 62,-176 62,-264l0 -1272c0,-88 -21,-152 -62,-193z"/>
  <path class="fil47" d="M13071 26000l-5 -2c17,-83 38,-162 68,-238l2331 -5872c47,-115 89,-199 129,-249l1 -1 4 3c-38,50 -81,133 -127,247l-2332 5872c-29,77 -53,157 -69,240z"/>
  <path class="fil48" d="M13920 26490l0 0 -848 -489c0,0 0,0 0,0l-1 -1c16,-83 40,-163 69,-240l2332 -5872c46,-114 89,-197 127,-247l844 487 -4 14c-37,52 -77,130 -119,235l-2331 5872c-31,77 -54,158 -69,241z"/>
  <path class="fil49" d="M13499 28033c-39,-23 -77,-45 -114,-66l1 0c36,21 74,43 113,66z"/>
  <path class="fil24" d="M13385 27967c-135,-78 -245,-141 -258,-148l-16 -13 17 13c12,7 122,70 258,148l-1 0zm-310 -202c-24,-39 -36,-92 -36,-159l0 -1271c0,-34 1,-67 3,-100 -2,33 -3,66 -3,99l0 1273c0,66 12,119 36,158z"/>
  <path class="fil26" d="M13965 28301c-50,-28 -266,-153 -466,-268 -39,-23 -77,-45 -113,-66 -136,-78 -246,-141 -258,-148l-17 -13 -10 -8c-10,-9 -19,-20 -26,-33 -24,-39 -36,-92 -36,-158l0 -1273c0,-33 1,-66 3,-99 5,-81 15,-158 30,-234l848 489c-22,106 -33,217 -33,334l0 1273c0,88 21,151 62,191l16 13z"/>
  <path class="fil50" d="M13920 26490l-848 -489c0,0 0,0 0,0l848 489z"/>
  <polygon class="fil26" points="16593,24938 15879,24526 16593,22729 "/>
  <polygon class="fil50" points="15454,25595 15879,24526 16593,24938 "/>
  <path class="fil24" d="M15958 27922c-90,-52 -155,-89 -164,-94 -9,-6 -18,-12 -25,-19l24 18c10,6 75,43 165,95z"/>
  <path class="fil26" d="M16631 28310c-68,-39 -449,-259 -673,-388 -90,-52 -155,-89 -165,-95l-24 -18c0,-1 0,-1 -1,-1 -41,-40 -62,-105 -62,-192l0 -246 847 -489 0 1224c0,88 21,153 63,192l15 13z"/>
  <path class="fil48" d="M17996 24127l0 -853c0,0 690,398 783,452 -13,-6 -26,-8 -40,-8 -23,0 -47,7 -72,22l-671 387z"/>
  <path class="fil51" d="M15704 19541c18,-12 36,-25 56,-36l1178 -680c25,-15 49,-22 72,-22 4,0 8,0 12,1 -4,-1 -8,-1 -12,-1 -22,0 -47,7 -72,22l-1178 680c-20,12 -38,24 -56,36z"/>
  <path class="fil52" d="M17813 19251c-110,-63 -293,-169 -452,-261 0,0 0,0 0,0 159,92 343,198 452,261z"/>
  <path class="fil51" d="M17361 18990c-50,-29 -98,-56 -139,-80 41,24 89,51 139,80 0,0 0,0 0,0z"/>
  <path class="fil41" d="M16449 20128l-848 -490c28,-35 62,-67 103,-97 18,-12 36,-24 56,-36l1178 -680c25,-15 50,-22 72,-22 4,0 8,0 12,1 14,1 27,6 40,14 2,1 67,38 160,92 41,24 89,51 139,80 159,92 342,198 452,261 45,26 77,45 90,52 -14,-7 -29,-11 -45,-11 -22,0 -47,8 -73,23l-1176 679c-68,40 -120,84 -160,134z"/>
  <path class="fil8" d="M16593 24938l0 -2209 -1139 2866 1139 -657zm171 3370c-57,33 -106,29 -148,-11 -41,-40 -62,-104 -62,-192l0 -1224 -2456 1418c-58,33 -107,30 -149,-11 -41,-40 -62,-104 -62,-192l0 -1272c0,-208 34,-400 102,-575l2331 -5872c47,-115 90,-197 128,-248 39,-50 93,-95 160,-134l1178 -680c57,-33 106,-30 148,10 41,41 62,105 62,193l0 4609 671 -387c57,-33 106,-29 148,10 41,41 62,105 62,193l0 1272c0,88 -21,176 -62,264 -42,89 -91,149 -148,182l-671 387 0 1224c0,89 -21,177 -62,265 -42,88 -91,148 -148,181l-1022 590z"/>
  <path class="fil8" d="M21200 22965c-17,-120 -27,-250 -30,-394 -26,-665 -26,-1337 0,-2017 5,-202 23,-397 54,-583 32,-186 78,-359 141,-520 62,-159 145,-306 249,-438 92,-117 206,-216 339,-300 17,118 30,248 37,388 21,653 21,1325 0,2017 -5,203 -22,397 -50,582 -29,184 -76,357 -141,519 -65,161 -149,308 -253,440 -94,119 -210,221 -346,306zm3081 -4267c-16,-423 -69,-806 -160,-1150 -91,-343 -229,-610 -413,-800 -65,-66 -136,-122 -213,-167 -142,-83 -772,-446 -850,-491 -141,-82 -302,-128 -483,-137 -281,-14 -616,92 -1006,317 -390,225 -725,507 -1006,845 -281,338 -513,708 -698,1111 -184,402 -322,828 -413,1277 -91,448 -144,893 -160,1335 -10,350 -15,713 -15,1089 0,376 5,725 15,1047 16,424 69,807 160,1150 91,344 229,611 413,800 65,67 135,122 211,167 142,84 781,452 863,498 139,78 296,122 472,130 281,14 616,-91 1006,-316 390,-225 725,-507 1006,-845 280,-338 513,-709 698,-1111 184,-403 322,-828 413,-1277 91,-449 144,-894 160,-1335 10,-334 15,-689 15,-1065 0,-376 -5,-733 -15,-1072z"/>
  <path class="fil47" d="M19914 25237c-111,-65 -206,-119 -251,-145 -40,-24 -78,-51 -115,-81 37,30 75,56 115,80 45,26 140,81 251,146zm-457 -308c-2,-1 -3,-3 -5,-4 -10,-11 -19,-21 -29,-32 9,11 19,21 29,31 2,2 3,4 5,5zm-203 -268c-89,-151 -160,-330 -215,-536 -27,-104 -51,-211 -72,-321 21,110 45,217 72,320 55,207 126,386 215,537zm-390 -2705c0,-9 0,-19 0,-28 0,-1 0,-1 0,-1 0,10 0,20 0,29zm114 -2116c18,-112 38,-225 61,-337 34,-172 76,-340 125,-505 -49,165 -90,333 -125,505 -23,112 -43,225 -61,337z"/>
  <path class="fil48" d="M20504 25576c-94,-53 -373,-214 -590,-339 -111,-65 -206,-120 -251,-146 -40,-24 -78,-50 -115,-80 -32,-25 -62,-52 -91,-82 -2,-1 -3,-3 -5,-5 -10,-10 -20,-20 -29,-31 -62,-68 -119,-146 -169,-232 -89,-151 -160,-330 -215,-537 -27,-103 -51,-210 -72,-320 -48,-258 -77,-534 -88,-830 -10,-314 -15,-653 -15,-1018 0,-9 0,-19 0,-29 0,-377 5,-740 15,-1089 12,-331 45,-664 99,-998 18,-112 38,-225 61,-337 35,-172 76,-340 125,-505 41,-139 87,-275 138,-409l0 0 847 491c-111,292 -198,597 -261,912 -92,449 -146,894 -161,1335 -11,350 -16,713 -16,1090 0,376 5,725 16,1047 15,423 69,807 161,1150 89,344 228,611 412,800 62,64 130,118 204,162z"/>
  <path class="fil51" d="M19961 17358c60,-83 123,-164 189,-244 107,-129 223,-250 347,-363 -124,113 -239,234 -347,364 -66,79 -129,160 -189,243zm1130 -1050c21,-13 43,-26 65,-38 188,-110 365,-190 528,-243 -163,53 -339,134 -528,243 -22,12 -44,25 -65,38zm1827 -60c-133,-77 -243,-141 -273,-158 -73,-42 -152,-75 -236,-98 84,23 163,55 237,98 29,17 139,81 272,158z"/>
  <path class="fil41" d="M20150 19080l-1 0 0 0 -847 -491c20,-53 41,-106 63,-158 28,-69 56,-137 87,-205 142,-309 311,-597 509,-868 60,-83 123,-164 189,-243 108,-130 223,-251 347,-364 181,-165 379,-313 594,-443 21,-13 43,-26 65,-38 189,-109 365,-190 528,-243 155,-50 298,-75 429,-75 17,0 33,1 49,1 87,5 169,18 247,39 84,23 163,56 236,98 30,17 140,81 273,158 193,111 434,250 545,315 -134,-71 -285,-111 -453,-120 -16,-1 -32,-1 -49,-1 -270,0 -589,106 -957,317 -390,226 -725,508 -1006,846 -281,338 -513,707 -698,1111 -28,60 -54,122 -80,184 -24,60 -47,119 -70,180z"/>
  <path class="fil24" d="M21703 22421l0 0c35,-65 68,-132 96,-202 47,-119 85,-243 114,-374 -28,131 -66,256 -114,374 -28,70 -60,138 -96,202zm269 -993c9,-101 15,-204 18,-309 21,-693 21,-1365 0,-2017 -3,-58 -7,-114 -12,-168 5,54 9,110 12,167 21,653 21,1325 0,2017 -3,106 -8,209 -18,310z"/>
  <path class="fil26" d="M22551 22911l-848 -490c36,-64 68,-132 96,-202 48,-118 86,-243 114,-374 10,-47 19,-96 27,-145 13,-89 24,-179 32,-272 10,-101 15,-204 18,-310 21,-692 21,-1364 0,-2017 -3,-57 -7,-113 -12,-167 -6,-78 -15,-151 -25,-222 0,0 22,-15 51,-32 136,-82 254,-119 351,-119 13,0 26,1 39,2 103,13 187,63 249,150 63,88 108,208 137,360 28,151 48,324 59,518 19,653 19,1325 0,2017 -6,203 -23,397 -52,581 -28,185 -75,357 -139,519 -29,70 -61,138 -97,203z"/>
  <path class="fil53" d="M21200 22964c0,0 0,0 0,0 135,-85 252,-186 345,-305 59,-74 112,-153 158,-238l0 0c-46,84 -99,164 -157,238 -94,119 -210,221 -346,305z"/>
  <path class="fil50" d="M21654 23601c-14,0 -27,-1 -40,-2 -104,-12 -189,-61 -253,-148 -65,-86 -112,-205 -140,-357 -9,-41 -15,-85 -21,-130 136,-84 252,-186 346,-305 58,-74 111,-154 157,-238l848 490c-46,84 -99,164 -157,238 -104,132 -234,243 -390,333 -137,80 -253,119 -350,119z"/>
  <path class="fil8" d="M22838 21608c21,-692 21,-1364 0,-2017 -10,-194 -30,-367 -58,-518 -29,-152 -74,-272 -137,-360 -62,-88 -145,-138 -249,-150 -104,-12 -234,27 -390,117 -156,90 -286,201 -390,333 -104,132 -187,279 -249,438 -63,161 -109,334 -141,520 -31,186 -49,381 -54,583 -26,680 -26,1352 0,2017 5,197 22,372 50,523 29,152 76,271 141,357 65,87 149,136 253,148 104,12 234,-27 390,-117 156,-90 286,-201 390,-333 104,-132 188,-279 253,-441 65,-161 112,-334 141,-519 28,-184 45,-378 50,-581zm-834 -4849c390,-225 725,-330 1006,-316 280,14 513,116 698,305 184,190 322,457 413,800 91,344 144,727 160,1150 10,339 15,696 15,1072 0,376 -5,731 -15,1065 -16,441 -69,886 -160,1335 -91,449 -229,874 -413,1277 -185,402 -418,773 -698,1111 -281,338 -616,620 -1006,845 -390,225 -725,330 -1006,316 -281,-13 -513,-115 -698,-305 -184,-189 -322,-456 -413,-800 -91,-343 -144,-727 -160,-1150 -10,-322 -15,-671 -15,-1047 0,-376 5,-740 15,-1090 16,-441 69,-886 160,-1335 91,-448 229,-874 413,-1277 185,-402 417,-772 698,-1111 281,-338 616,-620 1006,-845z"/>
  <path class="fil8" d="M30264 17141l-27 -20c-35,-20 -792,-457 -792,-457l0 -3756c0,-88 -21,-152 -62,-192l-25 -20c-36,-20 -839,-484 -847,-488 -36,-22 -78,-19 -125,7l-1177 680c-67,39 -121,84 -160,134 -39,51 -82,134 -128,249l-2332 5872c-67,175 -101,366 -101,574l0 1273c0,88 20,152 62,192l27 20c35,20 838,484 846,489 36,21 77,18 123,-9l1609 -929 0 246c0,88 20,152 62,192l25 19c36,21 839,485 848,489 36,22 77,19 123,-8l1022 -590c57,-33 106,-93 148,-181 41,-88 62,-176 62,-265l0 -1224 671 -387c57,-33 106,-93 148,-182 41,-88 62,-176 62,-264l0 -1272c0,-88 -21,-152 -62,-192z"/>
  <path class="fil47" d="M24520 19390l-5 -2c16,-83 38,-162 67,-238l2331 -5872c47,-115 90,-198 130,-249l1 -1 4 3c-38,50 -81,133 -127,247l-2332 5872c-30,77 -53,157 -69,240z"/>
  <path class="fil48" d="M25369 19880l0 0 -848 -489c0,0 0,0 0,0l-1 -1c16,-83 39,-163 69,-240l2332 -5872c46,-114 89,-197 127,-247l844 487 -5 15c-36,51 -76,129 -119,234l-2331 5872c-30,77 -53,158 -68,241z"/>
  <path class="fil49" d="M24932 21414c-34,-20 -66,-39 -98,-57l0 0c32,18 64,37 98,57z"/>
  <path class="fil24" d="M24834 21357c-136,-78 -245,-141 -258,-148l-17 -13 18 13c12,7 121,70 257,148l0 0zm-313 -205c-22,-39 -34,-91 -34,-156l0 -1271c0,-34 1,-67 3,-100 -1,33 -2,66 -2,99l0 1273c0,64 11,116 33,155z"/>
  <path class="fil26" d="M25413 21692c-51,-30 -277,-161 -481,-278 -34,-20 -66,-39 -98,-57 -136,-78 -245,-141 -257,-148l-18 -13 -9 -8c-11,-10 -21,-22 -29,-36 -22,-39 -33,-91 -33,-155l0 -1273c0,-33 1,-66 2,-99 5,-80 16,-158 31,-234l848 489c-22,106 -33,218 -33,334l0 1273c0,88 21,151 62,191l15 14z"/>
  <path class="fil50" d="M25369 19880l-848 -489c0,0 0,0 0,0l848 489z"/>
  <polygon class="fil26" points="28042,18328 27328,17916 28042,16119 "/>
  <polygon class="fil50" points="26903,18985 27328,17916 28042,18328 "/>
  <path class="fil24" d="M27380 21297c-76,-44 -129,-75 -138,-79l-12 -11 12 10c9,5 62,36 138,80z"/>
  <path class="fil26" d="M28079 21700c-70,-41 -479,-276 -699,-403 -76,-44 -129,-75 -138,-80l-12 -10 -13 -9c-42,-40 -62,-105 -62,-192l0 -246 847 -489 0 1224c0,88 21,153 63,192l14 13z"/>
  <path class="fil48" d="M29445 17517l0 -853c0,0 690,398 783,452 -13,-5 -27,-8 -41,-8 -22,0 -46,7 -71,22l-671 387z"/>
  <path class="fil51" d="M27083 12991c0,0 0,0 0,-1 0,1 0,1 0,1zm0 -1c4,-3 8,-7 11,-11 -3,4 -7,8 -11,11zm12 -11c0,0 0,0 0,0 0,0 0,0 0,0zm1 -1c0,0 0,0 0,0 0,0 0,0 0,0zm53 -44c19,-14 39,-27 60,-39l1177 -680c26,-15 50,-22 72,-22 5,0 9,0 13,1 -4,-1 -8,-1 -12,-1 -23,0 -47,7 -73,22l-1177 680c-21,12 -41,25 -60,39z"/>
  <path class="fil52" d="M29255 12637c-110,-63 -290,-167 -445,-257l0 0c155,90 335,194 445,257z"/>
  <path class="fil51" d="M28810 12380c-54,-31 -106,-61 -150,-87 44,26 96,56 150,87l0 0z"/>
  <path class="fil41" d="M27898 13518l-848 -490c10,-12 21,-25 33,-37 0,0 0,0 0,-1l0 0c4,-3 8,-7 11,-11l1 0c0,0 0,0 0,0 1,-1 1,-1 1,-1 0,0 0,0 0,0 16,-16 34,-30 53,-44 19,-14 39,-27 60,-39l1177 -680c26,-15 50,-22 73,-22 4,0 8,0 12,1 14,2 27,6 40,14 2,1 62,35 149,85 44,26 96,56 150,87 155,90 335,194 445,257 48,28 83,48 97,56 -14,-7 -29,-11 -45,-11 -23,0 -47,8 -73,23l-1176 679c-68,40 -121,84 -160,134z"/>
  <path class="fil8" d="M28041 18328l0 -2209 -1138 2866 1138 -657zm172 3370c-57,33 -107,30 -148,-11 -42,-40 -62,-104 -62,-192l0 -1224 -2457 1418c-57,33 -106,30 -148,-11 -41,-40 -62,-104 -62,-192l0 -1272c0,-208 34,-400 101,-575l2332 -5872c46,-115 89,-197 128,-248 39,-50 93,-95 160,-134l1178 -680c57,-33 106,-29 148,11 41,40 62,104 62,192l0 4609 671 -387c57,-33 106,-29 148,11 41,40 62,104 62,192l0 1272c0,88 -21,176 -62,264 -42,89 -91,149 -148,182l-671 387 0 1224c0,89 -21,177 -62,265 -42,88 -91,148 -148,181l-1022 590z"/>
  <path class="fil4" d="M19936 29088c13,-7 24,-7 34,2 9,9 14,24 14,44l0 288c0,20 -5,40 -14,60 -10,20 -21,33 -34,41l-837 483c-13,8 -24,7 -34,-2 -9,-9 -14,-24 -14,-44l0 -1756c0,-20 5,-40 14,-60 10,-20 21,-33 34,-41l823 -475c13,-8 24,-7 34,2 9,9 14,24 14,44l0 288c0,20 -5,40 -14,60 -10,20 -21,33 -34,41l-544 314 0 294 505 -292c13,-7 24,-7 34,2 9,9 14,24 14,44l0 288c0,20 -5,40 -14,60 -10,20 -21,34 -34,41l-505 292 0 304 558 -322z"/>
  <path class="fil4" d="M20558 28085l199 -116c50,-28 91,-66 123,-114 32,-48 49,-110 49,-186 0,-76 -17,-119 -49,-129 -32,-11 -73,-1 -123,27l-199 115 0 403zm199 -939c78,-45 147,-73 209,-83 61,-10 113,-2 156,24 43,26 76,72 99,137 23,66 34,152 34,257 0,136 -18,259 -54,370 -37,111 -89,209 -156,295l219 521 5 26c0,17 -3,33 -11,49 -8,16 -17,28 -27,34l-241 138c-23,14 -40,15 -50,5 -10,-11 -18,-22 -24,-35l-196 -469 -162 94 0 582c0,20 -5,40 -14,59 -10,20 -21,34 -34,42l-231 133c-13,8 -24,7 -34,-2 -9,-9 -14,-24 -14,-44l0 -1756c0,-20 5,-40 14,-60 10,-20 21,-34 34,-41l478 -276z"/>
  <path class="fil4" d="M21829 27350l200 -115c49,-28 90,-66 123,-114 32,-48 48,-110 48,-186 0,-76 -16,-119 -48,-129 -33,-11 -74,-2 -123,27l-200 115 0 402zm200 -939c77,-44 147,-72 208,-82 61,-10 114,-2 156,24 43,26 76,72 99,137 23,66 35,151 35,257 0,136 -18,259 -55,370 -36,110 -88,209 -155,295l219 520 5 27c0,17 -4,33 -12,49 -7,16 -16,27 -27,33l-240 139c-24,14 -40,15 -50,5 -10,-11 -18,-22 -24,-35l-196 -469 -163 94 0 581c0,20 -4,40 -14,60 -9,20 -21,34 -33,41l-232 134c-13,7 -24,7 -33,-2 -10,-9 -15,-24 -15,-44l0 -1756c0,-20 5,-40 15,-60 9,-20 20,-34 33,-41l479 -277z"/>
  <path class="fil4" d="M23509 26737c1,-33 2,-70 3,-111 1,-40 2,-81 2,-123 0,-42 -1,-82 -2,-120 -1,-38 -2,-73 -3,-103 -3,-44 -9,-82 -19,-114 -10,-32 -24,-57 -42,-75 -19,-17 -41,-26 -68,-27 -27,-1 -59,9 -96,30 -36,21 -68,48 -95,80 -27,32 -50,67 -68,106 -18,38 -32,80 -42,123 -10,44 -17,90 -19,136 -2,32 -4,68 -4,108 -1,39 -1,79 -1,121 0,42 0,82 1,122 0,40 2,75 4,106 5,88 25,151 61,191 36,39 90,37 163,-5 73,-42 128,-103 163,-184 35,-80 56,-167 62,-261zm-776 -23c4,-103 18,-207 44,-312 25,-104 61,-202 107,-295 47,-94 103,-179 170,-256 66,-77 143,-141 230,-192 86,-49 163,-74 230,-74 67,0 124,20 170,60 47,39 83,96 108,171 25,75 40,163 43,262 3,77 4,158 4,243 0,85 -1,165 -4,241 -3,104 -18,207 -43,312 -25,104 -61,203 -108,297 -46,94 -103,179 -170,256 -67,77 -144,140 -230,190 -87,50 -164,76 -230,76 -67,0 -123,-20 -170,-60 -46,-40 -82,-98 -107,-173 -26,-75 -40,-162 -44,-262 -2,-73 -3,-152 -3,-237 0,-85 1,-167 3,-247z"/>
  <path class="fil4" d="M24413 25859l199 -115c50,-29 91,-67 123,-115 33,-47 49,-109 49,-185 0,-77 -16,-120 -49,-130 -32,-10 -73,-1 -123,27l-199 115 0 403zm199 -939c78,-45 148,-73 209,-83 61,-9 113,-1 156,25 43,25 76,71 99,137 23,65 34,151 34,256 0,136 -18,259 -54,370 -37,111 -89,209 -156,295l219 521 6 26c0,17 -4,33 -12,49 -8,16 -17,28 -27,34l-241 139c-23,13 -40,15 -50,4 -10,-10 -18,-22 -24,-35l-196 -469 -162 94 0 582c0,20 -5,40 -14,60 -10,20 -21,33 -34,41l-231 133c-13,8 -24,7 -34,-2 -9,-9 -14,-24 -14,-43l0 -1757c0,-20 5,-40 14,-60 10,-20 21,-33 34,-41l478 -276z"/>
  <path class="fil54" d="M16535 32897l210 -121c51,-30 92,-69 123,-118 30,-49 46,-113 46,-191 0,-77 -16,-122 -46,-134 -31,-12 -72,-4 -123,26l-210 121 0 417zm216 -802c109,-63 194,-73 255,-29 60,45 90,143 90,296 0,153 -30,287 -90,402 -61,116 -146,205 -255,268l-216 125 0 465c0,15 -4,30 -11,46 -7,15 -16,25 -26,31l-109 63c-10,6 -19,6 -26,-1 -7,-7 -11,-18 -11,-34l0 -1346c0,-15 4,-30 11,-46 7,-15 16,-25 26,-31l362 -209z"/>
  <path class="fil54" d="M17741 32438l-149 -508 -149 680 298 -172zm-75 -872c15,-8 25,-8 33,-1 7,8 13,22 19,43l331 1125 1 14c0,15 -3,30 -10,45 -7,16 -16,26 -26,32l-97 56c-19,11 -31,12 -38,4 -8,-7 -12,-16 -15,-25l-58 -198 -428 247 -58 265c-3,13 -8,27 -15,43 -7,16 -20,29 -38,39l-98 57c-9,5 -18,5 -25,-2 -7,-7 -11,-18 -11,-33l1 -16 332 -1508c5,-27 12,-48 19,-64 7,-16 18,-28 32,-37l149 -86z"/>
  <path class="fil54" d="M18155 31824c2,-84 11,-166 30,-245 18,-80 44,-154 78,-223 34,-69 77,-131 127,-188 50,-56 108,-103 175,-141 78,-46 143,-67 194,-66 51,2 92,16 122,43 30,26 51,59 63,98 13,40 20,75 21,106 1,16 -2,32 -10,46 -7,15 -16,26 -26,31l-110 64c-10,5 -18,6 -23,2l-13 -17c-2,-4 -7,-14 -14,-28 -8,-14 -20,-27 -37,-37 -17,-11 -39,-16 -66,-16 -27,-1 -61,11 -101,34 -68,39 -122,99 -163,178 -40,80 -62,168 -64,264 -2,54 -3,111 -3,171 0,61 1,117 3,169 2,113 24,184 64,213 41,29 95,24 163,-16 33,-19 64,-42 92,-69 28,-28 52,-60 72,-96 21,-37 36,-79 48,-127 11,-47 17,-101 17,-160l0 -17 -166 95c-10,6 -18,5 -25,-2 -8,-7 -11,-18 -11,-33l0 -148c0,-15 3,-30 11,-46 7,-15 15,-25 25,-31l312 -180c10,-6 18,-5 25,2 8,7 11,18 11,33l0 229c0,84 -8,165 -25,245 -17,80 -43,156 -78,226 -34,71 -77,135 -128,193 -52,59 -112,107 -180,147 -69,39 -128,60 -179,61 -50,2 -92,-13 -126,-44 -33,-30 -59,-76 -76,-136 -18,-60 -27,-131 -29,-213 -1,-26 -2,-55 -2,-87 -1,-31 -1,-64 -1,-97 0,-34 0,-66 1,-98 0,-32 1,-62 2,-89z"/>
  <path class="fil54" d="M19811 31526c10,-6 19,-5 26,2 7,7 11,18 11,33l0 148c0,15 -4,31 -11,46 -7,15 -16,26 -26,31l-594 343c-10,6 -18,6 -26,-1 -7,-7 -10,-18 -10,-34l0 -1346c0,-15 3,-30 10,-45 8,-16 16,-26 26,-32l583 -337c10,-5 19,-5 26,2 7,7 11,18 11,33l0 148c0,16 -4,31 -11,46 -7,15 -16,26 -26,32l-437 252 0 331 408 -235c9,-6 18,-5 25,2 8,7 11,18 11,33l0 148c0,16 -3,31 -11,46 -7,15 -16,26 -25,32l-408 235 0 346 448 -259z"/>
  <path class="fil54" d="M21006 31097c-15,8 -27,9 -35,1l-18 -19 -379 -648 0 859c0,15 -3,30 -10,45 -7,16 -16,26 -26,32l-110 63c-10,6 -18,5 -25,-2 -8,-6 -11,-18 -11,-33l0 -1346c0,-15 3,-30 11,-46 7,-15 15,-26 25,-31l95 -55c15,-9 27,-9 35,-1l18 18 379 648 0 -858c0,-15 3,-30 11,-46 7,-15 15,-26 25,-31l110 -64c10,-5 18,-5 26,2 7,7 10,18 10,34l0 1345c0,16 -3,31 -10,46 -8,16 -16,26 -26,32l-95 55z"/>
  <path class="fil54" d="M21963 29640c-4,-98 -25,-163 -63,-196 -38,-33 -89,-31 -152,5 -63,37 -114,94 -152,171 -39,77 -60,166 -63,268 -2,54 -3,113 -3,178 0,65 1,123 3,174 3,98 24,163 63,195 38,33 89,30 152,-6 63,-37 114,-93 152,-169 38,-77 59,-166 63,-268 2,-54 3,-113 3,-178 0,-64 -1,-122 -3,-174zm-613 343c3,-79 12,-158 29,-236 17,-79 41,-152 74,-222 32,-70 73,-133 122,-191 48,-58 106,-106 173,-145 66,-38 123,-56 172,-55 48,1 89,18 121,50 33,33 58,78 75,136 17,59 27,126 30,204 1,26 1,55 2,86 0,32 0,65 0,99 0,34 0,67 0,99 -1,32 -1,62 -2,89 -3,79 -13,158 -29,236 -17,79 -42,153 -74,222 -33,70 -73,133 -123,191 -49,57 -106,105 -172,143 -67,39 -125,58 -173,57 -49,-2 -90,-18 -122,-50 -33,-32 -57,-77 -74,-137 -17,-59 -26,-126 -29,-203 -1,-25 -2,-54 -2,-86 -1,-32 -1,-64 -1,-98 0,-34 0,-68 1,-100 0,-32 1,-62 2,-89z"/>
  <path class="fil54" d="M22970 28504c10,-5 18,-5 25,2 8,7 11,18 11,34l0 148c0,15 -3,30 -11,45 -7,16 -15,26 -25,32l-244 140 0 1142c0,15 -3,31 -11,46 -7,15 -16,26 -25,32l-110 63c-10,6 -18,5 -26,-2 -7,-7 -11,-18 -11,-33l0 -1142 -243 141c-10,5 -19,5 -26,-2 -7,-7 -11,-18 -11,-34l0 -147c0,-16 4,-31 11,-46 7,-16 16,-26 26,-32l670 -387z"/>
  <path class="fil54" d="M24098 27853c10,-6 19,-5 26,1 7,8 11,19 11,34l0 148c0,15 -4,30 -11,46 -7,15 -16,25 -26,31l-431 250 0 404 404 -234c10,-6 19,-5 26,2 7,7 11,18 11,33l0 148c0,15 -4,31 -11,46 -7,15 -16,26 -26,32l-404 233 0 477c0,16 -4,31 -11,46 -7,15 -16,26 -26,31l-109 64c-10,6 -19,5 -26,-2 -7,-7 -11,-18 -11,-33l0 -1346c0,-16 4,-31 11,-46 7,-15 16,-26 26,-32l577 -333z"/>
  <path class="fil54" d="M24896 27947c-4,-98 -25,-164 -63,-196 -39,-33 -89,-31 -153,5 -63,37 -114,94 -152,171 -38,77 -59,166 -63,268 -2,54 -2,113 -2,178 0,64 0,123 2,174 4,98 25,163 63,195 38,32 89,30 152,-6 64,-37 114,-93 153,-170 38,-76 59,-165 63,-267 1,-54 2,-113 2,-178 0,-64 -1,-122 -2,-174zm-613 343c2,-79 12,-158 29,-236 16,-79 41,-153 73,-222 33,-69 73,-133 122,-191 49,-58 107,-107 173,-145 66,-38 123,-57 172,-55 49,1 90,17 122,50 32,33 57,78 75,136 17,58 27,126 29,204 1,26 2,54 2,86 1,32 1,65 1,99 0,34 0,67 -1,99 0,32 -1,62 -2,89 -2,79 -12,158 -29,236 -17,79 -41,153 -74,222 -32,70 -73,133 -122,191 -49,57 -107,105 -173,143 -66,39 -124,57 -173,56 -49,-1 -89,-17 -122,-49 -32,-32 -57,-78 -73,-137 -17,-59 -27,-127 -29,-203 -1,-26 -2,-54 -3,-86 0,-32 0,-65 0,-99 0,-34 0,-67 0,-99 1,-32 2,-62 3,-89z"/>
  <path class="fil54" d="M26023 26742c10,-6 18,-6 26,1 7,7 11,19 11,34l0 854c0,86 -9,169 -25,248 -16,78 -40,152 -73,221 -32,69 -73,131 -122,186 -49,55 -105,101 -169,138 -65,38 -122,57 -170,58 -48,0 -88,-15 -121,-46 -32,-31 -57,-77 -72,-138 -16,-60 -24,-133 -24,-219l0 -854c0,-16 4,-31 11,-46 7,-16 16,-26 26,-32l109 -63c10,-6 19,-5 26,2 7,7 11,18 11,33l0 844c0,57 5,103 15,137 9,35 23,60 42,75 18,15 39,21 64,19 26,-3 53,-13 83,-30 30,-17 58,-39 83,-66 26,-27 48,-58 66,-94 18,-36 32,-78 42,-124 11,-46 16,-98 16,-155l0 -843c0,-16 4,-31 11,-46 7,-16 16,-26 26,-32l108 -62z"/>
  <path class="fil54" d="M26912 27687c-15,9 -27,9 -35,1l-18 -19 -379 -648 0 859c0,15 -3,31 -11,46 -7,15 -15,25 -25,31l-110 63c-10,6 -18,6 -25,-1 -8,-7 -11,-18 -11,-34l0 -1346c0,-15 3,-30 11,-46 7,-15 15,-25 25,-31l95 -55c15,-9 27,-9 35,-1l18 19 379 648 0 -859c0,-15 3,-30 10,-46 8,-15 16,-25 26,-31l110 -63c10,-6 18,-5 25,1 8,8 11,19 11,34l0 1346c0,15 -3,30 -11,46 -7,15 -15,26 -25,31l-95 55z"/>
  <path class="fil54" d="M27881 26244c-2,-43 -7,-81 -17,-114 -9,-33 -23,-58 -42,-76 -18,-18 -42,-27 -70,-26 -28,0 -61,11 -100,34l-181 104 0 938 188 -109c37,-21 69,-48 96,-79 27,-32 50,-67 68,-105 18,-38 32,-79 41,-124 10,-44 15,-89 17,-135 4,-104 4,-207 0,-308zm-222 -447c67,-39 125,-58 174,-60 49,-1 90,14 123,45 33,31 58,77 76,137 17,61 28,134 32,220 3,100 3,203 0,308 -4,89 -15,175 -32,256 -18,81 -43,156 -75,224 -33,69 -73,131 -121,186 -49,55 -105,101 -170,139l-341 197c-10,5 -19,5 -26,-2 -7,-7 -11,-18 -11,-34l0 -1346c0,-15 4,-30 11,-45 7,-16 16,-26 26,-32l334 -193z"/>
  <path class="fil8" d="M42913 3646l-5242 3028c-75,43 -135,147 -135,233l0 6702c0,86 61,191 136,233l483 271c75,42 197,42 271,-1l5242 -3027c75,-43 135,-148 135,-234l0 -6702c0,-86 -60,-190 -135,-233l-484 -271c-75,-42 -196,-41 -271,1z"/>
  <path class="fil8" d="M38291 14034l0 -6702c0,-86 61,-191 135,-234l5242 -3027c75,-43 135,-8 135,78l0 6702c0,86 -60,191 -135,234l-5242 3027c-74,43 -135,8 -135,-78z"/>
  <path class="fil55" d="M37536 6906l0 1 0 0 0 2020 0 0 0 0 0 -2020c0,-17 3,-36 7,-55 -4,18 -7,36 -7,54zm0 3366l0 3338c0,56 26,120 65,169 -39,-49 -65,-113 -65,-170l0 -3338 0 1zm701 3868c-31,-4 -60,-13 -82,-27l-260 -146 260 146c24,13 52,22 82,27z"/>
  <path class="fil56" d="M38286 14144c-16,0 -33,-2 -49,-4 -30,-5 -58,-14 -82,-27l-260 -146 -223 -125c-26,-15 -50,-37 -71,-63 -39,-49 -65,-113 -65,-170l0 -3338 755 -909 0 4672c0,0 0,0 0,0l0 0c0,60 29,95 72,96 1,0 2,0 3,0 13,0 27,-3 43,-10 -35,16 -79,24 -123,24zm5 -4782l-755 -435 0 -2020c0,-17 3,-36 7,-55 8,-28 20,-56 36,-82l752 429c-8,12 -14,25 -19,38 -13,31 -21,63 -21,94 0,0 0,0 0,1l0 2030z"/>
  <path class="fil55" d="M38416 14117c2,-1 5,-2 7,-3 1,-1 2,-2 3,-2 -3,2 -6,3 -10,5z"/>
  <path class="fil56" d="M38409 14120c2,-1 5,-2 8,-3 0,0 0,-1 0,-1 0,0 0,0 0,0 1,0 2,0 2,-1 1,0 1,0 1,0 0,0 0,0 0,0 1,0 2,-1 3,-1 -2,1 -5,2 -7,3 -2,1 -5,2 -7,3z"/>
  <path class="fil56" d="M38363 14130c-43,-1 -72,-36 -72,-96 0,55 28,94 72,96zm54 -13c0,0 0,-1 0,-1 0,0 0,1 0,1zm0 -1c1,0 2,0 2,-1 0,1 -1,1 -2,1zm3 -1c0,0 0,0 0,0 0,0 0,0 0,0zm-129 -81c0,0 0,0 0,0l0 -4672 0 4671c0,1 0,1 0,1zm0 -4672l0 -2030c0,-1 0,-1 0,-1 0,0 0,0 0,1l0 2030zm21 -2125c5,-13 11,-26 19,-38l0 0c-7,12 -14,25 -19,38z"/>
  <path class="fil17" d="M37578 6770l0 0c22,-37 50,-68 82,-89 -32,21 -60,53 -82,89zm4456 -2615l880 -509c37,-21 87,-32 136,-32 48,0 97,10 134,31l484 271c57,33 106,101 126,170 -20,-69 -69,-137 -126,-170l-484 -271c-37,-21 -85,-31 -134,-31 -49,0 -99,11 -137,32l-879 509z"/>
  <path class="fil41" d="M38331 7199l-752 -429c0,0 0,0 0,0l-1 0c22,-36 50,-68 82,-89 4,-3 7,-5 11,-7l4363 -2519 879 -509c38,-21 88,-32 137,-32 49,0 97,10 134,31l484 271c57,33 106,101 126,170 4,13 6,26 8,38 -8,-46 -35,-72 -73,-72 -19,0 -39,6 -61,19l-3128 1806 -2114 1221c-37,21 -71,58 -95,101z"/>
  <path class="fil41" d="M38331 7199l0 0 0 0c24,-43 58,-80 95,-101l2114 -1221 -2114 1221c-37,22 -71,59 -95,101z"/>
  <path class="fil57" d="M38331 7199l-752 -429c0,0 0,0 0,0l752 429 0 0z"/>
  <path class="fil8" d="M37536 8927l-1086 1105c-58,59 -38,147 20,185 22,14 752,432 752,432l1069 -1287 -755 -435z"/>
  <path class="fil43" d="M37222 10649c0,0 -730,-418 -752,-432 -34,-22 -55,-62 -55,-102 0,-29 11,-59 35,-83l1086 -1105 755 435 -755 909 0 1 -314 377z"/>
  <path class="fil8" d="M38291 9362l-1086 1105c-80,82 -11,218 102,202l984 -142c106,0 106,-1165 0,-1165z"/>
  <path class="fil4" d="M39313 8330l779 749c42,40 108,39 148,-3 40,-41 39,-107 -3,-147l-779 -750c-42,-40 -108,-39 -148,3 -40,42 -38,108 3,148z"/>
  <path class="fil4" d="M39480 9498l779 -1649c25,-52 2,-114 -50,-139 -52,-24 -114,-2 -139,50l-779 1649c-24,52 -2,114 50,139 52,25 114,2 139,-50z"/>
  <path class="fil4" d="M41857 6861l779 749c42,40 108,39 148,-3 40,-41 39,-107 -3,-147l-779 -750c-41,-40 -108,-38 -147,3 -40,42 -39,108 2,148z"/>
  <path class="fil4" d="M42024 8029l779 -1649c25,-52 3,-114 -50,-139 -52,-24 -114,-2 -139,50l-779 1649c-24,52 -2,115 50,139 52,25 114,3 139,-50z"/>
  <path class="fil4" d="M39403 11412l3393 -1958c49,-29 67,-93 38,-143 -29,-50 -93,-67 -143,-38l-3392 1959c-50,29 -67,92 -38,142 29,50 92,67 142,38z"/>
  <path class="fil4" d="M41367 10098l0 947c0,121 28,227 89,307 60,82 157,130 259,129 78,0 156,-24 233,-68 139,-82 254,-214 338,-366 84,-152 137,-324 138,-491l0 0 -99 0 99 2 0 -2 -99 0 99 2 0 -2 0 -948c0,-57 -47,-104 -105,-104 -57,0 -104,47 -104,104l0 947 104 0 -104 -2 0 3c0,121 -42,264 -111,390 -69,125 -166,232 -261,286 -52,30 -96,41 -128,40 -42,-1 -66,-13 -93,-46 -25,-32 -47,-93 -46,-181l0 -947c0,-58 -47,-104 -105,-104 -57,0 -104,46 -104,104z"/>
  <path class="fil4" d="M41791 9853l0 914c0,58 47,105 104,105 58,0 105,-47 105,-105l0 -914c0,-57 -47,-104 -105,-104 -57,0 -104,47 -104,104z"/>
  <path class="fil58" d="M23375 44190l3224 -522c5808,-941 11670,-710 17481,688l633 153 -4001 587c-5463,801 -10970,568 -16435,-697l-902 -209z"/>
  <g>
   <path class="fil59" d="M41959 36488l-7228 0 548 -1261 6680 140 0 1121zm-8115 0l-1349 0 568 -1307 1337 28 -556 1279 0 0zm-3689 0l-2535 0 0 -1420 3124 65 -589 1355 0 0z"/>
  </g>
  <polygon class="fil60" points="32495,36488 30155,36488 30744,35133 33063,35181 32495,36488 "/>
  <polygon class="fil60" points="34731,36488 33844,36488 34400,35209 35279,35227 34731,36488 "/>
  <path class="fil61" d="M38968 30627c0,0 491,-752 -2117,3054l-2539 684 60 218 3709 -376 2192 -2034 -1305 -1546z"/>
  <polygon class="fil62" points="42991,38458 42187,38458 42835,35189 43640,35189 "/>
  <path class="fil63" d="M40990 34463c43,505 255,810 841,874 757,82 2029,311 2749,-116 216,-128 382,-315 470,-584 4,-14 9,-27 13,-42 252,-879 597,-1956 442,-2734 -3,-14 -6,-28 -9,-42 -2,-7 -3,-14 -6,-21 -1,-7 -3,-14 -5,-21 -2,-6 -4,-12 -6,-18 -3,-10 -7,-21 -10,-31l-3 -7c-5,-14 -10,-28 -15,-41 -6,-14 -12,-27 -18,-41l-1 -2c-7,-14 -14,-27 -21,-41 -7,-13 -15,-27 -22,-40 -31,-52 -66,-101 -106,-145 -12,-14 -24,-27 -36,-40l-3 -2c-145,-147 -331,-238 -519,-238l-1455 0c-792,0 -1505,395 -1905,1121 -137,246 -243,534 -284,861 -67,540 -121,994 -91,1350z"/>
  <path class="fil61" d="M40811 34463c41,505 242,810 795,874 716,82 1919,311 2599,-116 204,-128 362,-315 444,-584 5,-14 9,-27 13,-42 238,-879 564,-1956 418,-2734 -3,-14 -6,-28 -9,-42 -2,-7 -3,-14 -5,-21 -2,-7 -4,-14 -5,-21 -2,-6 -4,-12 -6,-18 -3,-10 -6,-21 -10,-31l-2 -7c-5,-14 -10,-28 -15,-41 -5,-14 -11,-27 -17,-41l-1 -2c-6,-14 -12,-27 -19,-41 -7,-13 -14,-27 -21,-40 -29,-52 -63,-101 -100,-145 -11,-14 -23,-27 -35,-40l-2 -2c-137,-147 -313,-238 -491,-238l-1375 0c-749,0 -1423,395 -1802,1121 -129,246 -229,534 -268,861 -64,540 -115,994 -86,1350z"/>
  <path class="fil64" d="M40811 34463c41,505 242,810 795,874 716,82 1919,311 2599,-116 32,-22 65,-44 97,-70 158,-128 282,-305 347,-514 5,-14 9,-27 13,-42 238,-879 564,-1956 418,-2734 -3,-14 -6,-28 -9,-42 -2,-7 -3,-14 -5,-21 -2,-7 -4,-14 -5,-21 -2,-6 -4,-12 -6,-18 -3,-10 -6,-21 -10,-31l-2 -7c-5,-14 -10,-28 -15,-41 -5,-14 -11,-27 -17,-41l-1 -2c-6,-14 -12,-27 -19,-41 -7,-13 -14,-27 -21,-40 -30,-52 -63,-101 -100,-145 -46,-56 -97,-105 -152,-146 186,138 89,515 58,714 -43,275 -114,545 -217,799 -170,418 -434,792 -774,1035 -421,302 -930,390 -1425,430 -494,41 -997,41 -1475,193 -24,8 -49,17 -74,27z"/>
  <path class="fil65" d="M42787 42790c0,175 -142,318 -318,318 -175,0 -317,-143 -317,-318 0,-176 142,-318 317,-318 176,0 318,142 318,318z"/>
  <path class="fil65" d="M41651 40849l0 1036c226,-19 764,-64 1100,675 12,28 5,81 -12,81l-581 0c-5,0 -9,-5 -13,-14 -70,-197 -91,-438 -549,-378l0 251 -75 0 0 -1651 130 0z"/>
  <path class="fil62" d="M38894 42948c0,210 -170,380 -379,380 -210,0 -380,-170 -380,-380 0,-210 170,-380 380,-380 209,0 379,170 379,380z"/>
  <path class="fil62" d="M40692 42948c0,210 -170,380 -380,380 -210,0 -380,-170 -380,-380 0,-210 170,-380 380,-380 210,0 380,170 380,380z"/>
  <path class="fil62" d="M44686 42948c0,210 -170,380 -380,380 -210,0 -380,-170 -380,-380 0,-210 170,-380 380,-380 210,0 380,170 380,380z"/>
  <polygon class="fil66" points="41054,40736 41734,40736 41734,38239 41054,38239 "/>
  <path class="fil67" d="M37599 38458l6606 0c77,0 153,-24 217,-69 113,-80 164,-196 164,-311 0,-196 -149,-388 -386,-388l-5531 0c-459,0 -890,219 -1160,590 -54,74 -1,178 90,178z"/>
  <path class="fil66" d="M40788 38458l3473 0c66,0 131,-24 185,-69 97,-80 140,-196 140,-311 0,-196 -127,-388 -329,-388l-2557 0c-391,0 -759,219 -989,590 -47,74 -2,178 77,178z"/>
  <path class="fil62" d="M38937 42753c220,-234 781,-523 2217,-451l0 300 480 0 0 -300c1435,-72 1997,217 2217,451 10,11 24,18 39,18l777 0c50,0 74,-64 36,-97 -1053,-884 -2186,-830 -2896,-807l0 -1238 -826 0 0 1238c-709,-23 -1843,-63 -2892,807 -39,32 -15,97 36,97l772 0c16,0 29,-7 40,-18z"/>
  <path class="fil62" d="M39956 42719c401,-869 1049,-829 1319,-806l0 -1239 160 0 0 1815 -94 0 0 -141c-547,-73 -565,216 -649,451 -4,11 -9,17 -15,17l-707 0c-19,0 -28,-64 -14,-97z"/>
  <path class="fil61" d="M42884 35906l-2041 -132 -2916 1127c-48,21 -86,59 -108,107l-615 6357c0,16 -286,90 -312,98 -66,21 -132,42 -198,63 -29,9 -85,18 -100,42 -23,37 30,62 69,69 173,28 359,-12 519,-59 48,-14 95,-28 143,-41 15,-8 24,-21 26,-35l17 -65c210,-438 1950,-4254 1641,-5735 0,0 3209,105 3655,-349 446,-454 220,-1447 220,-1447z"/>
  <path class="fil59" d="M43377 37078l0 14c-5,330 -269,598 -599,612l-3211 122c568,1533 105,4398 -54,5254 -21,114 -39,228 -53,343l-26 203c-2,14 -11,27 -26,34 -48,14 -95,28 -142,42 -161,47 -347,87 -519,59 -40,-7 -92,-32 -69,-69 15,-24 70,-33 100,-42 65,-21 131,-42 198,-63 26,-8 311,-82 311,-98 -9,-53 -18,-107 -28,-161l-1092 -5975c18,-61 59,-113 113,-147l2047 -995 815 -396 1455 823 780 440z"/>
  <path class="fil68" d="M43377 37078l0 14c-5,330 -269,598 -599,612l-3211 122c568,1533 105,4398 -54,5254 -21,114 -39,228 -53,343l-26 203c-2,14 -11,27 -26,34 -48,14 -95,28 -142,42 -161,47 -347,87 -519,59 -40,-7 -92,-32 -69,-69 15,-24 70,-33 100,-42 65,-21 131,-42 198,-63 26,-8 311,-82 311,-98 -9,-53 -18,-107 -28,-161l-1092 -5975c18,-61 59,-113 113,-147l2047 -995c10,10 17,22 22,34 23,53 14,113 8,169 -23,204 2,423 120,592 171,244 499,327 797,314 336,-15 664,-137 935,-333 126,-92 255,-221 388,-349l780 440z"/>
  <polygon class="fil54" points="41202,35593 40752,35775 40867,36005 41611,35491 "/>
  <path class="fil61" d="M41611 35491l-744 514c0,0 1217,1284 2692,1275l135 -604 -2083 -1185z"/>
  <path class="fil59" d="M43707 36863c-1125,43 -2096,-1372 -2096,-1372l-409 102c29,-139 43,-281 43,-421 0,-421 -126,-836 -366,-1189 -1393,-2049 -1911,-3356 -1911,-3356 112,-114 545,-415 661,-496 34,-25 68,-48 103,-69 388,-245 784,-327 1160,-312 351,14 304,-42 572,78 9,4 18,8 28,12 796,360 1424,1007 1803,1794 1122,2327 412,5229 412,5229z"/>
  <path class="fil54" d="M41464 29828c-1054,607 -1501,1569 -1501,1569 -193,-360 -230,-952 -231,-1335 76,-48 153,-90 229,-126 314,-148 628,-198 931,-186 45,2 84,2 118,2l0 0c226,0 221,-28 454,76z"/>
  <path class="fil61" d="M41464 29828c-1054,607 -1501,1569 -1501,1569 -193,-360 -230,-952 -231,-1335 76,-48 153,-90 229,-126 -4,220 -61,478 -68,571 -5,49 -7,103 25,141 69,82 200,-3 271,-85 250,-292 513,-586 821,-811l0 0c226,0 221,-28 454,76z"/>
  <path class="fil61" d="M41038 33597c198,7 378,-139 466,-317 88,-178 102,-383 105,-582 3,-238 -9,-480 -88,-704 -20,-55 -48,-113 -101,-138 -52,-25 -115,-10 -168,13 -172,73 -301,221 -407,375 -167,247 -407,659 -386,971 16,226 380,375 579,382z"/>
  <path class="fil69" d="M40312 29237c0,0 -10,477 280,603 0,0 -300,507 -629,423l-221 -576 570 -450z"/>
  <path class="fil70" d="M38801 30216c0,0 1018,336 1654,-782 633,-1112 -503,-2696 -876,-3061l-7 -7 -6 -5c-221,-207 -741,-344 -1478,126 -290,187 -448,426 -530,660 -10,27 -18,54 -25,81 -18,62 -29,125 -36,188 -28,225 4,454 89,666 18,45 38,88 61,130 8,19 18,36 27,55l1019 1761 67 119 41 69z"/>
  <path class="fil69" d="M38801 30216c0,0 1018,336 1654,-782 633,-1112 -503,-2696 -876,-3061l-7 -7 -6 -5 -1608 692c-141,108 -263,147 -425,175 -18,62 -29,125 -36,188 -28,225 4,454 89,666 18,45 38,88 61,130 30,-20 57,-46 77,-77 25,-40 41,-87 69,-125 25,-34 58,-61 92,-86 212,-152 468,-248 642,-441 63,-70 114,-153 168,-231 6,-8 13,-18 24,-20 11,-4 22,2 33,8 196,108 377,247 587,329 79,32 162,55 235,99 181,112 261,330 328,532l185 560c8,20 16,43 36,48 17,6 34,-4 52,-5 61,-4 43,336 37,389 -15,141 -59,279 -128,402 -171,310 -492,508 -842,550 -141,17 -310,24 -482,3l41 69z"/>
  <path class="fil71" d="M37630 27996c15,-25 32,-49 52,-71 84,-92 199,-148 306,-211 227,-132 430,-305 597,-507 48,-58 95,-122 108,-197 273,240 599,418 948,519 64,18 130,35 184,75 114,84 51,211 82,328 32,117 66,233 99,349 43,155 87,310 130,464l104 -54c0,0 -58,-754 44,-715 101,38 521,257 157,885 -8,33 125,241 149,262 65,-86 99,-232 136,-336 43,-119 79,-240 95,-366 29,-229 19,-462 -20,-690 -78,-452 -265,-885 -518,-1265 -123,-186 -264,-364 -446,-492 -28,-19 -58,-38 -91,-44 -33,-7 -68,-2 -101,5 -91,18 -181,42 -268,74 -84,-86 -210,-121 -330,-118 -120,3 -236,41 -348,85 -79,31 -158,65 -234,102 -451,217 -923,530 -1100,1020 -70,196 -92,409 -53,614 20,104 56,204 106,297 51,96 143,169 192,260 -45,-85 -28,-188 20,-273z"/>
  <path class="fil72" d="M38676 28735c-120,-111 -142,-30 -128,94 16,146 98,312 52,458 -83,261 447,67 357,-147 -39,-94 -109,-189 -167,-273 -24,-35 -66,-88 -114,-132z"/>
  <path class="fil71" d="M39367 28378c-67,-112 -151,-172 -187,-134 -36,38 -11,160 56,272 68,112 151,172 187,134 36,-38 11,-160 -56,-272z"/>
  <path class="fil71" d="M38179 28765c-36,38 -10,160 57,272 67,112 151,172 187,134 36,-38 10,-160 -57,-272 -67,-112 -151,-172 -187,-134z"/>
  <path class="fil73" d="M38628 26231c0,0 -1177,104 -1124,1339 0,0 833,200 1213,-1077l-585 413 496 -675z"/>
  <path class="fil72" d="M39459 29871c-46,12 -93,-10 -138,-27 -64,-24 -143,-35 -196,8 -73,59 -66,194 -179,204 -75,5 -137,-67 -152,-133 -9,-38 -6,-79 6,-119 34,-133 157,-262 254,-325 68,-43 150,-77 229,-59 62,14 112,56 154,106 12,13 23,27 33,41 36,49 69,102 75,161 5,60 -27,128 -86,143z"/>
  <path class="fil17" d="M39437 29526c-116,90 -240,171 -369,240 -58,32 -119,62 -184,73 -28,5 -58,-10 -84,-35 34,-133 157,-262 254,-325 68,-43 150,-77 229,-59 62,14 112,56 154,106z"/>
  <path class="fil71" d="M38101 28201c58,65 87,154 86,242 0,87 -28,173 -69,250 -28,51 -66,101 -121,116 -42,11 -89,-1 -120,-30 -96,-92 34,-166 81,-242 65,-103 104,-221 143,-336z"/>
  <path class="fil71" d="M38671 27962c52,71 133,117 219,135 86,18 176,10 260,-15 55,-16 112,-43 138,-94 20,-39 18,-87 -5,-124 -69,-113 -168,-1 -253,29 -115,42 -238,56 -359,69z"/>
  <path class="fil17" d="M36795 27948c-86,86 -151,202 -151,324 0,29 5,59 25,79 19,19 51,24 78,15 26,-9 47,-30 62,-53 46,-74 33,-170 54,-254 20,-80 69,-166 107,-238 -20,38 -138,90 -175,127z"/>
  <path class="fil17" d="M36671 27674c-122,14 -244,64 -321,160 -17,22 -33,49 -29,77 3,27 25,50 51,60 26,9 56,6 82,-3 82,-29 131,-112 201,-165 65,-49 157,-86 232,-119 -39,17 -164,-15 -216,-10z"/>
  <path class="fil17" d="M36815 27433c-81,-92 -192,-164 -314,-172 -28,-2 -59,0 -80,19 -21,18 -27,50 -20,76 7,27 26,50 49,66 71,51 167,44 250,72 77,25 160,79 229,122 -36,-22 -80,-143 -114,-183z"/>
  <path class="fil70" d="M36969 32672l68 -139 -87 -99c-4,-5 44,-86 48,-94 21,-43 53,-96 88,-129 30,-29 60,-56 86,-89 20,-25 35,-51 45,-78 15,-42 20,-87 16,-136 -6,-79 -55,-166 -115,-217 -5,-4 -12,-8 -18,-7 -6,1 -10,7 -13,12 -22,42 -1,92 17,135 15,34 28,70 32,107 4,50 -12,102 -39,144 -28,43 -67,77 -111,103 -13,8 -26,15 -37,25l-9 -1c33,-57 68,-115 90,-176 11,-31 17,-60 17,-89 2,-45 -9,-88 -28,-134 -31,-73 -104,-140 -178,-169 -6,-2 -14,-4 -19,-1 -6,3 -8,10 -9,16 -7,46 28,87 60,122 25,28 49,57 64,91 20,47 22,101 9,150 -13,49 -39,94 -72,133l-5 6c12,-58 25,-117 27,-175 1,-32 -3,-62 -11,-90 -12,-43 -36,-81 -68,-118 -52,-61 -143,-101 -222,-106 -6,0 -14,0 -18,5 -5,4 -5,11 -4,18 8,46 54,74 95,97 32,19 64,40 89,67 33,39 52,89 55,140 3,47 -7,94 -24,137 -2,-11 -3,-22 -6,-34 -7,-31 -18,-59 -33,-84 -23,-38 -55,-69 -96,-97 -66,-45 -164,-61 -242,-46 -6,2 -13,4 -16,10 -3,5 -1,12 1,18 19,43 71,58 116,70 36,10 72,22 103,43 43,28 73,72 89,120 16,48 18,101 11,151 -2,14 -3,28 -3,42 -3,30 -6,59 -10,88 -4,44 -25,105 9,139 17,17 258,119 258,119z"/>
  <path class="fil54" d="M39783 32041l-718 1454 -2097 -1059 -154 290 2304 1850 2493 -1894 52 -2464c-277,19 -589,175 -991,575 -365,362 -661,787 -889,1248z"/>
  <path class="fil59" d="M36968 32556l2097 1059 718 -1454c120,-243 215,-423 439,-580 214,-149 453,-261 705,-329 146,-39 298,-63 438,-119 141,-56 274,-151 337,-289 93,-206 7,-423 -42,-625 -390,24 -724,312 -988,574 -365,362 -661,787 -889,1248l-718 1454 -2097 -1059 -154 290 44 36 110 -206z"/>
  <polygon class="fil74" points="30245,33305 30591,34485 31216,34485 31216,33218 "/>
  <polygon class="fil75" points="30693,33302 30786,34173 30245,33305 "/>
  <path class="fil76" d="M30245 33305l272 55c290,59 591,47 876,-35l125 -36 -200 -42c-239,-51 -486,-54 -726,-8l-347 66z"/>
  <path class="fil77" d="M30879 33358c-147,0 -294,-15 -438,-44l-31 -7 122 -23c135,-25 273,-38 410,-38 153,0 306,16 456,47l5 1c-172,42 -347,64 -524,64z"/>
  <polygon class="fil78" points="30363,30197 31216,34114 35603,34114 34812,30197 "/>
  <polygon class="fil79" points="32241,32384 32526,32384 32526,30197 32241,30197 "/>
  <polygon class="fil79" points="32068,30197 32068,32384 30760,32022 30363,30197 "/>
  <polygon class="fil80" points="34676,34485 39063,34485 39063,34114 34676,34114 "/>
  <polygon class="fil81" points="31216,34485 35603,34485 35603,34114 31216,34114 "/>
  <path class="fil17" d="M34812 30197c0,0 964,2644 791,3917l-791 -3917z"/>
  <path class="fil74" d="M30381 33623c0,0 -454,-133 -513,52 -58,186 813,748 813,748l3 -123c0,0 -683,-489 -670,-563 12,-74 306,-55 383,-25l-16 -89z"/>
  <path class="fil17" d="M30591 32977c51,78 57,114 73,207 -36,-202 -315,-166 -378,-342 -37,-100 35,-209 23,-315 -13,-119 -126,-199 -230,-258 -192,-109 -403,-209 -523,-394 -82,-126 -112,-281 -110,-433 1,-148 35,-304 138,-411 102,-107 287,-143 401,-48 129,108 107,307 132,474 41,278 233,506 406,727 54,69 109,145 113,232 8,152 -139,288 -107,436 10,46 36,86 62,125z"/>
  <polygon class="fil82" points="28155,43770 35098,43086 35508,34576 28204,34576 "/>
  <polygon class="fil83" points="35798,35189 35745,44383 34840,44271 34840,43434 28158,42951 28158,43770 27590,43699 27179,35189 "/>
  <polygon class="fil82" points="35707,44383 40021,43699 40430,35189 35756,35189 "/>
  <polygon class="fil59" points="35150,35932 40966,35932 40966,34485 35150,34485 "/>
  <polygon class="fil61" points="26597,35932 35722,35932 35722,34485 26597,34485 "/>
 </g>
</svg>
